Amatic-Bold.ufo
<glyph name="exclam" format="1">
  <advance width="286"/>
  <unicode hex="0021"/>
  <outline>
    <contour>
      <point x="100" y="298" type="curve"/>
      <point x="191" y="298" type="line"/>
      <point x="170" y="334" type="line"/>
      <point x="181" y="370"/>
      <point x="184" y="408"/>
      <point x="184" y="446" type="curve" smooth="yes"/>
      <point x="184" y="478"/>
      <point x="182" y="511"/>
      <point x="182" y="543" type="curve" smooth="yes"/>
      <point x="182" y="870"/>
      <point x="225" y="1195"/>
      <point x="225" y="1522" type="curve" smooth="yes"/>
      <point x="225" y="1550"/>
      <point x="203" y="1572"/>
      <point x="175" y="1572" type="curve" smooth="yes"/>
      <point x="133" y="1572"/>
      <point x="88" y="1537"/>
      <point x="88" y="1493" type="curve" smooth="yes"/>
      <point x="88" y="1269"/>
      <point x="98" y="1045"/>
      <point x="98" y="821" type="curve" smooth="yes"/>
      <point x="98" y="713"/>
      <point x="90" y="596"/>
      <point x="90" y="482" type="curve" smooth="yes"/>
      <point x="90" y="419"/>
      <point x="92" y="357"/>
    </contour>
    <contour>
      <point x="115" y="-38" type="curve"/>
      <point x="119" y="-52" type="line"/>
      <point x="168" y="-49"/>
      <point x="210" y="-29"/>
      <point x="210" y="26" type="curve" smooth="yes"/>
      <point x="210" y="77"/>
      <point x="181" y="125"/>
      <point x="126" y="125" type="curve" smooth="yes"/>
      <point x="78" y="125"/>
      <point x="41" y="78"/>
      <point x="41" y="33" type="curve"/>
      <point x="56" y="2"/>
      <point x="80" y="-29"/>
    </contour>
  </outline>
</glyph>
<glyph name="asterisk" format="1">
  <advance width="861"/>
  <unicode hex="002A"/>
  <outline>
    <contour>
      <point x="186" y="745" type="line"/>
      <point x="186" y="736" type="line"/>
      <point x="230" y="690" type="line"/>
      <point x="279" y="697" type="line"/>
      <point x="336" y="789"/>
      <point x="373" y="910"/>
      <point x="413" y="1011" type="curve"/>
      <point x="500" y="821" type="line"/>
      <point x="502" y="776"/>
      <point x="521" y="700"/>
      <point x="578" y="700" type="curve" smooth="yes"/>
      <point x="607" y="700"/>
      <point x="630" y="723"/>
      <point x="630" y="752" type="curve" smooth="yes"/>
      <point x="630" y="819"/>
      <point x="508" y="1015"/>
      <point x="478" y="1094" type="curve"/>
      <point x="567" y="1094"/>
      <point x="656" y="1085"/>
      <point x="745" y="1085" type="curve" smooth="yes"/>
      <point x="780" y="1085"/>
      <point x="816" y="1096"/>
      <point x="816" y="1137" type="curve" smooth="yes"/>
      <point x="816" y="1187"/>
      <point x="767" y="1199"/>
      <point x="712" y="1199" type="curve" smooth="yes"/>
      <point x="661" y="1199"/>
      <point x="604" y="1189"/>
      <point x="577" y="1189" type="curve" smooth="yes"/>
      <point x="546" y="1189"/>
      <point x="516" y="1190"/>
      <point x="485" y="1194" type="curve"/>
      <point x="518" y="1275"/>
      <point x="529" y="1372"/>
      <point x="577" y="1445" type="curve" smooth="yes"/>
      <point x="591" y="1466"/>
      <point x="608" y="1486"/>
      <point x="608" y="1512" type="curve" smooth="yes"/>
      <point x="608" y="1542"/>
      <point x="580" y="1567"/>
      <point x="551" y="1567" type="curve" smooth="yes"/>
      <point x="479" y="1567"/>
      <point x="418" y="1317"/>
      <point x="398" y="1258" type="curve"/>
      <point x="373" y="1307"/>
      <point x="303" y="1547"/>
      <point x="247" y="1547" type="curve" smooth="yes"/>
      <point x="220" y="1547"/>
      <point x="191" y="1531"/>
      <point x="191" y="1501" type="curve" smooth="yes"/>
      <point x="191" y="1455"/>
      <point x="300" y="1250"/>
      <point x="327" y="1196" type="curve"/>
      <point x="84" y="1198" type="line" smooth="yes"/>
      <point x="58" y="1198"/>
      <point x="38" y="1175"/>
      <point x="38" y="1150" type="curve" smooth="yes"/>
      <point x="38" y="1092"/>
      <point x="71" y="1096"/>
      <point x="116" y="1096" type="curve" smooth="yes"/>
      <point x="341" y="1096" type="line"/>
      <point x="312" y="1011"/>
      <point x="187" y="811"/>
      <point x="185" y="742" type="curve"/>
    </contour>
  </outline>
</glyph>
<glyph name="comma" format="1">
  <advance width="376"/>
  <unicode hex="002C"/>
  <outline>
    <contour>
      <point x="58" y="-175" type="line"/>
      <point x="113" y="-202" type="line"/>
      <point x="119" y="-202" type="line" smooth="yes"/>
      <point x="214" y="-202"/>
      <point x="305" y="-15"/>
      <point x="305" y="77" type="curve" smooth="yes"/>
      <point x="305" y="82"/>
      <point x="304" y="87"/>
      <point x="304" y="91" type="curve"/>
      <point x="308" y="98" type="line"/>
      <point x="291" y="143"/>
      <point x="268" y="184"/>
      <point x="214" y="184" type="curve" smooth="yes"/>
      <point x="166" y="184"/>
      <point x="113" y="149"/>
      <point x="113" y="97" type="curve" smooth="yes"/>
      <point x="113" y="55"/>
      <point x="139" y="20"/>
      <point x="172" y="-4" type="curve"/>
      <point x="162" y="-54"/>
      <point x="102" y="-96"/>
      <point x="68" y="-130" type="curve"/>
    </contour>
  </outline>
</glyph>
<glyph name="four" format="1">
  <advance width="480"/>
  <unicode hex="0034"/>
  <outline>
    <contour>
      <point x="133" y="480" type="line"/>
      <point x="170" y="480"/>
      <point x="207" y="489"/>
      <point x="244" y="491" type="curve"/>
      <point x="247" y="470"/>
      <point x="248" y="449"/>
      <point x="248" y="428" type="curve" smooth="yes"/>
      <point x="248" y="398"/>
      <point x="246" y="369"/>
      <point x="246" y="339" type="curve" smooth="yes"/>
      <point x="246" y="272"/>
      <point x="261" y="207"/>
      <point x="261" y="140" type="curve" smooth="yes"/>
      <point x="261" y="115"/>
      <point x="257" y="90"/>
      <point x="250" y="66" type="curve"/>
      <point x="254" y="59" type="line"/>
      <point x="254" y="23"/>
      <point x="269" y="-38"/>
      <point x="315" y="-38" type="curve" smooth="yes"/>
      <point x="353" y="-38"/>
      <point x="363" y="9"/>
      <point x="363" y="39" type="curve"/>
      <point x="358" y="50" type="line"/>
      <point x="364" y="76" type="line"/>
      <point x="356" y="89"/>
      <point x="354" y="103"/>
      <point x="354" y="117" type="curve" smooth="yes"/>
      <point x="354" y="130"/>
      <point x="356" y="143"/>
      <point x="358" y="155" type="curve"/>
      <point x="343" y="190"/>
      <point x="337" y="436"/>
      <point x="337" y="489" type="curve" smooth="yes"/>
      <point x="337" y="505"/>
      <point x="355" y="507"/>
      <point x="370" y="507" type="curve" smooth="yes"/>
      <point x="376" y="507"/>
      <point x="381" y="507"/>
      <point x="385" y="507" type="curve" smooth="yes"/>
      <point x="421" y="507"/>
      <point x="452" y="513"/>
      <point x="452" y="557" type="curve" smooth="yes"/>
      <point x="452" y="593"/>
      <point x="422" y="601"/>
      <point x="391" y="601" type="curve" smooth="yes"/>
      <point x="369" y="601"/>
      <point x="347" y="597"/>
      <point x="332" y="596" type="curve"/>
      <point x="303" y="785"/>
      <point x="306" y="979"/>
      <point x="306" y="1170" type="curve"/>
      <point x="274" y="1206" type="line"/>
      <point x="264" y="1206" type="line" smooth="yes"/>
      <point x="238" y="1206"/>
      <point x="201" y="1191"/>
      <point x="201" y="1160" type="curve" smooth="yes"/>
      <point x="201" y="1106"/>
      <point x="215" y="1054"/>
      <point x="218" y="1000" type="curve" smooth="yes"/>
      <point x="226" y="863"/>
      <point x="231" y="725"/>
      <point x="232" y="587" type="curve"/>
      <point x="207" y="581"/>
      <point x="182" y="577"/>
      <point x="157" y="576" type="curve"/>
      <point x="155" y="591"/>
      <point x="154" y="607"/>
      <point x="154" y="622" type="curve" smooth="yes"/>
      <point x="154" y="796"/>
      <point x="183" y="969"/>
      <point x="183" y="1143" type="curve" smooth="yes"/>
      <point x="183" y="1179"/>
      <point x="181" y="1216"/>
      <point x="177" y="1252" type="curve"/>
      <point x="182" y="1259" type="line"/>
      <point x="176" y="1283"/>
      <point x="174" y="1308"/>
      <point x="174" y="1333" type="curve" smooth="yes"/>
      <point x="174" y="1386"/>
      <point x="183" y="1440"/>
      <point x="183" y="1492" type="curve" smooth="yes"/>
      <point x="183" y="1524"/>
      <point x="151" y="1543"/>
      <point x="122" y="1543" type="curve" smooth="yes"/>
      <point x="85" y="1543"/>
      <point x="77" y="1525"/>
      <point x="77" y="1503" type="curve" smooth="yes"/>
      <point x="77" y="1484"/>
      <point x="83" y="1461"/>
      <point x="83" y="1442" type="curve" smooth="yes"/>
      <point x="83" y="1124" type="line" smooth="yes"/>
      <point x="83" y="991"/>
      <point x="52" y="844"/>
      <point x="52" y="706" type="curve" smooth="yes"/>
      <point x="52" y="666"/>
      <point x="54" y="628"/>
      <point x="61" y="591" type="curve"/>
      <point x="54" y="565"/>
      <point x="52" y="539"/>
      <point x="52" y="512" type="curve"/>
      <point x="76" y="493"/>
      <point x="101" y="479"/>
      <point x="132" y="479" type="curve"/>
    </contour>
  </outline>
</glyph>
<glyph name="colon" format="1">
  <advance width="301"/>
  <unicode hex="003A"/>
  <outline>
    <contour>
      <point x="88" y="1024" type="curve" smooth="yes"/>
      <point x="88" y="987"/>
      <point x="118" y="951"/>
      <point x="156" y="951" type="curve" smooth="yes"/>
      <point x="201" y="951"/>
      <point x="237" y="979"/>
      <point x="237" y="1026" type="curve" smooth="yes"/>
      <point x="237" y="1064"/>
      <point x="203" y="1103"/>
      <point x="164" y="1103" type="curve" smooth="yes"/>
      <point x="123" y="1103"/>
      <point x="88" y="1064"/>
    </contour>
    <contour>
      <point x="67" y="250" type="curve" smooth="yes"/>
      <point x="67" y="213"/>
      <point x="98" y="177"/>
      <point x="136" y="177" type="curve" smooth="yes"/>
      <point x="181" y="177"/>
      <point x="216" y="206"/>
      <point x="216" y="252" type="curve" smooth="yes"/>
      <point x="216" y="290"/>
      <point x="183" y="329"/>
      <point x="144" y="329" type="curve" smooth="yes"/>
      <point x="103" y="329"/>
      <point x="67" y="291"/>
    </contour>
  </outline>
</glyph>
<glyph name="semicolon" format="1">
  <advance width="345"/>
  <unicode hex="003B"/>
  <outline>
    <contour>
      <point x="90" y="-11" type="curve" smooth="yes"/>
      <point x="193" y="-11"/>
      <point x="289" y="168"/>
      <point x="289" y="258" type="curve" smooth="yes"/>
      <point x="289" y="309"/>
      <point x="251" y="359"/>
      <point x="198" y="359" type="curve" smooth="yes"/>
      <point x="150" y="359"/>
      <point x="97" y="324"/>
      <point x="97" y="272" type="curve" smooth="yes"/>
      <point x="97" y="230"/>
      <point x="123" y="195"/>
      <point x="156" y="171" type="curve"/>
      <point x="147" y="122"/>
      <point x="91" y="83"/>
      <point x="57" y="51" type="curve"/>
      <point x="48" y="27" type="line"/>
      <point x="48" y="10"/>
      <point x="74" y="-11"/>
    </contour>
    <contour>
      <point x="133" y="1025" type="curve" smooth="yes"/>
      <point x="133" y="988"/>
      <point x="163" y="952"/>
      <point x="201" y="952" type="curve" smooth="yes"/>
      <point x="246" y="952"/>
      <point x="282" y="980"/>
      <point x="282" y="1027" type="curve" smooth="yes"/>
      <point x="282" y="1065"/>
      <point x="248" y="1104"/>
      <point x="209" y="1104" type="curve" smooth="yes"/>
      <point x="168" y="1104"/>
      <point x="133" y="1065"/>
    </contour>
  </outline>
</glyph>
<glyph name="at" format="1">
  <advance width="1030"/>
  <unicode hex="0040"/>
  <outline>
    <contour>
      <point x="491" y="1246" type="curve" smooth="yes"/>
      <point x="578" y="1246"/>
      <point x="577" y="1152"/>
      <point x="589" y="1089" type="curve" smooth="yes"/>
      <point x="610" y="980"/>
      <point x="638" y="871"/>
      <point x="638" y="759" type="curve" smooth="yes"/>
      <point x="638" y="605" type="line" smooth="yes"/>
      <point x="638" y="550"/>
      <point x="565" y="410"/>
      <point x="503" y="410" type="curve" smooth="yes"/>
      <point x="352" y="410"/>
      <point x="347" y="579"/>
      <point x="347" y="691" type="curve" smooth="yes"/>
      <point x="347" y="954" type="line" smooth="yes"/>
      <point x="347" y="1054"/>
      <point x="351" y="1246"/>
    </contour>
    <contour>
      <point x="434" y="-31" type="curve" smooth="yes"/>
      <point x="161" y="-31"/>
      <point x="204" y="718"/>
      <point x="169" y="902" type="curve"/>
      <point x="174" y="923"/>
      <point x="176" y="945"/>
      <point x="176" y="966" type="curve" smooth="yes"/>
      <point x="176" y="992"/>
      <point x="173" y="1018"/>
      <point x="171" y="1044" type="curve"/>
      <point x="245" y="1257"/>
      <point x="124" y="1612"/>
      <point x="468" y="1612" type="curve" smooth="yes"/>
      <point x="630" y="1612"/>
      <point x="698" y="1549"/>
      <point x="757" y="1404" type="curve" smooth="yes"/>
      <point x="836" y="1208"/>
      <point x="870" y="987"/>
      <point x="870" y="776" type="curve" smooth="yes"/>
      <point x="870" y="723"/>
      <point x="865" y="536"/>
      <point x="817" y="510" type="curve"/>
      <point x="788" y="556" type="line"/>
      <point x="770" y="565" type="line"/>
      <point x="757" y="680"/>
      <point x="711" y="1227"/>
      <point x="654" y="1284" type="curve" smooth="yes"/>
      <point x="610" y="1327"/>
      <point x="553" y="1351"/>
      <point x="491" y="1351" type="curve" smooth="yes"/>
      <point x="223" y="1351"/>
      <point x="218" y="1047"/>
      <point x="218" y="851" type="curve" smooth="yes"/>
      <point x="218" y="661"/>
      <point x="220" y="306"/>
      <point x="487" y="306" type="curve" smooth="yes"/>
      <point x="582" y="306"/>
      <point x="670" y="368"/>
      <point x="716" y="449" type="curve"/>
      <point x="741" y="426"/>
      <point x="774" y="406"/>
      <point x="809" y="406" type="curve" smooth="yes"/>
      <point x="981" y="406"/>
      <point x="985" y="645"/>
      <point x="985" y="767" type="curve" smooth="yes"/>
      <point x="985" y="859"/>
      <point x="968" y="950"/>
      <point x="954" y="1041" type="curve" smooth="yes"/>
      <point x="909" y="1333"/>
      <point x="857" y="1719"/>
      <point x="478" y="1719" type="curve" smooth="yes"/>
      <point x="62" y="1719"/>
      <point x="55" y="1262"/>
      <point x="55" y="956" type="curve" smooth="yes"/>
      <point x="55" y="683"/>
      <point x="56" y="-120"/>
      <point x="441" y="-120" type="curve" smooth="yes"/>
      <point x="597" y="-120"/>
      <point x="863" y="-27"/>
      <point x="909" y="140" type="curve"/>
      <point x="871" y="179" type="line"/>
      <point x="859" y="169" type="line"/>
      <point x="673" y="57"/>
      <point x="717" y="-31"/>
    </contour>
  </outline>
</glyph>
<glyph name="C" format="1">
  <advance width="649"/>
  <unicode hex="0043"/>
  <outline>
    <contour>
      <point x="420" y="1444" type="line"/>
      <point x="431" y="1426"/>
      <point x="453" y="1419"/>
      <point x="473" y="1419" type="curve" smooth="yes"/>
      <point x="501" y="1419"/>
      <point x="530" y="1434"/>
      <point x="530" y="1465" type="curve" smooth="yes"/>
      <point x="530" y="1531"/>
      <point x="442" y="1565"/>
      <point x="387" y="1565" type="curve" smooth="yes"/>
      <point x="210" y="1565"/>
      <point x="61" y="1463"/>
      <point x="61" y="1290" type="curve" smooth="yes"/>
      <point x="61" y="1270"/>
      <point x="63" y="1248"/>
      <point x="67" y="1226" type="curve"/>
      <point x="55" y="1164"/>
      <point x="53" y="1100"/>
      <point x="53" y="1037" type="curve" smooth="yes"/>
      <point x="53" y="853"/>
      <point x="72" y="253"/>
      <point x="133" y="124" type="curve" smooth="yes"/>
      <point x="172" y="41"/>
      <point x="272" y="-33"/>
      <point x="366" y="-33" type="curve" smooth="yes"/>
      <point x="472" y="-33"/>
      <point x="617" y="4"/>
      <point x="617" y="135" type="curve"/>
      <point x="590" y="162" type="line"/>
      <point x="569" y="155"/>
      <point x="547" y="152"/>
      <point x="525" y="152" type="curve"/>
      <point x="492" y="113"/>
      <point x="443" y="93"/>
      <point x="393" y="93" type="curve" smooth="yes"/>
      <point x="336" y="93"/>
      <point x="273" y="111"/>
      <point x="239" y="160" type="curve" smooth="yes"/>
      <point x="200" y="217"/>
      <point x="158" y="756"/>
      <point x="158" y="856" type="curve" smooth="yes"/>
      <point x="158" y="904"/>
      <point x="176" y="951"/>
      <point x="176" y="999" type="curve" smooth="yes"/>
      <point x="176" y="1046"/>
      <point x="170" y="1093"/>
      <point x="170" y="1140" type="curve" smooth="yes"/>
      <point x="170" y="1294"/>
      <point x="175" y="1448"/>
      <point x="372" y="1448" type="curve"/>
      <point x="378" y="1446" type="line"/>
      <point x="378" y="1428" type="line"/>
      <point x="388" y="1428" type="line"/>
      <point x="388" y="1443" type="line"/>
      <point x="400" y="1440" type="line"/>
      <point x="420" y="1445" type="line"/>
    </contour>
  </outline>
</glyph>
<glyph name="H" format="1">
  <advance width="560"/>
  <unicode hex="0048"/>
  <outline>
    <contour>
      <point x="351" y="1496" type="line"/>
      <point x="351" y="1272"/>
      <point x="368" y="1048"/>
      <point x="369" y="824" type="curve"/>
      <point x="302" y="822"/>
      <point x="237" y="811"/>
      <point x="170" y="809" type="curve"/>
      <point x="167" y="827"/>
      <point x="166" y="844"/>
      <point x="166" y="862" type="curve" smooth="yes"/>
      <point x="166" y="888"/>
      <point x="168" y="914"/>
      <point x="168" y="939" type="curve" smooth="yes"/>
      <point x="168" y="1079"/>
      <point x="154" y="1220"/>
      <point x="154" y="1360" type="curve" smooth="yes"/>
      <point x="154" y="1411"/>
      <point x="156" y="1462"/>
      <point x="161" y="1514" type="curve"/>
      <point x="113" y="1554" type="line"/>
      <point x="54" y="1525" type="line"/>
      <point x="54" y="1510" type="line" smooth="yes"/>
      <point x="54" y="1207"/>
      <point x="70" y="904"/>
      <point x="91" y="602" type="curve" smooth="yes"/>
      <point x="97" y="514"/>
      <point x="90" y="83"/>
      <point x="115" y="41" type="curve" smooth="yes"/>
      <point x="130" y="16"/>
      <point x="141" y="5"/>
      <point x="171" y="5" type="curve" smooth="yes"/>
      <point x="199" y="5"/>
      <point x="215" y="34"/>
      <point x="215" y="59" type="curve" smooth="yes"/>
      <point x="215" y="291"/>
      <point x="182" y="521"/>
      <point x="181" y="753" type="curve"/>
      <point x="219" y="769"/>
      <point x="261" y="769"/>
      <point x="302" y="769" type="curve" smooth="yes"/>
      <point x="325" y="769"/>
      <point x="348" y="763"/>
      <point x="370" y="759" type="curve"/>
      <point x="383" y="519"/>
      <point x="388" y="278"/>
      <point x="388" y="37" type="curve" smooth="yes"/>
      <point x="388" y="4"/>
      <point x="401" y="-31"/>
      <point x="440" y="-31" type="curve" smooth="yes"/>
      <point x="477" y="-31"/>
      <point x="500" y="10"/>
      <point x="500" y="43" type="curve" smooth="yes"/>
      <point x="500" y="491"/>
      <point x="461" y="943"/>
      <point x="461" y="1393" type="curve" smooth="yes"/>
      <point x="461" y="1469"/>
      <point x="459" y="1550"/>
      <point x="361" y="1550" type="curve"/>
      <point x="354" y="1498" type="line"/>
    </contour>
  </outline>
</glyph>
<glyph name="N" format="1">
  <advance width="737"/>
  <unicode hex="004E"/>
  <outline>
    <contour>
      <point x="671" y="1502" type="line"/>
      <point x="671" y="1516" type="line" smooth="yes"/>
      <point x="671" y="1553"/>
      <point x="660" y="1596"/>
      <point x="615" y="1596" type="curve" smooth="yes"/>
      <point x="582" y="1596"/>
      <point x="547" y="1580"/>
      <point x="539" y="1545" type="curve"/>
      <point x="547" y="1505"/>
      <point x="548" y="1465"/>
      <point x="548" y="1424" type="curve" smooth="yes"/>
      <point x="548" y="1409"/>
      <point x="548" y="1395"/>
      <point x="548" y="1380" type="curve"/>
      <point x="537" y="1350" type="line"/>
      <point x="548" y="1343" type="line"/>
      <point x="548" y="939" type="line" smooth="yes"/>
      <point x="548" y="701"/>
      <point x="540" y="463"/>
      <point x="540" y="225" type="curve"/>
      <point x="538" y="250"/>
      <point x="532" y="276"/>
      <point x="519" y="298" type="curve"/>
      <point x="501" y="564"/>
      <point x="373" y="817"/>
      <point x="320" y="1078" type="curve" smooth="yes"/>
      <point x="306" y="1148"/>
      <point x="307" y="1220"/>
      <point x="287" y="1288" type="curve" smooth="yes"/>
      <point x="267" y="1356"/>
      <point x="229" y="1419"/>
      <point x="229" y="1492" type="curve" smooth="yes"/>
      <point x="229" y="1528"/>
      <point x="191" y="1554"/>
      <point x="158" y="1554" type="curve" smooth="yes"/>
      <point x="78" y="1554"/>
      <point x="81" y="1514"/>
      <point x="81" y="1449" type="curve" smooth="yes"/>
      <point x="81" y="1324"/>
      <point x="67" y="1198"/>
      <point x="67" y="1073" type="curve" smooth="yes"/>
      <point x="67" y="812" type="line" smooth="yes"/>
      <point x="67" y="688"/>
      <point x="93" y="371"/>
      <point x="93" y="177" type="curve" smooth="yes"/>
      <point x="93" y="116"/>
      <point x="91" y="67"/>
      <point x="84" y="40" type="curve"/>
      <point x="99" y="2" type="line"/>
      <point x="172" y="2" type="line"/>
      <point x="200" y="33" type="line"/>
      <point x="200" y="42" type="line" smooth="yes"/>
      <point x="200" y="237"/>
      <point x="171" y="431"/>
      <point x="171" y="626" type="curve" smooth="yes"/>
      <point x="171" y="1187" type="line" smooth="yes"/>
      <point x="171" y="1224"/>
      <point x="172" y="1261"/>
      <point x="179" y="1298" type="curve"/>
      <point x="191" y="1246"/>
      <point x="200" y="1193"/>
      <point x="210" y="1141" type="curve"/>
      <point x="203" y="1122" type="line"/>
      <point x="213" y="1112" type="line"/>
      <point x="229" y="1092"/>
      <point x="225" y="1061"/>
      <point x="229" y="1037" type="curve" smooth="yes"/>
      <point x="285" y="721"/>
      <point x="395" y="421"/>
      <point x="482" y="113" type="curve" smooth="yes"/>
      <point x="495" y="65"/>
      <point x="489" y="-21"/>
      <point x="560" y="-21" type="curve" smooth="yes"/>
      <point x="621" y="-21"/>
      <point x="632" y="17"/>
      <point x="632" y="61" type="curve" smooth="yes"/>
      <point x="632" y="84"/>
      <point x="629" y="109"/>
      <point x="629" y="131" type="curve"/>
      <point x="645" y="170"/>
      <point x="649" y="210"/>
      <point x="649" y="252" type="curve" smooth="yes"/>
      <point x="649" y="293"/>
      <point x="645" y="334"/>
      <point x="645" y="375" type="curve" smooth="yes"/>
      <point x="645" y="620" type="line"/>
      <point x="650" y="629" type="line"/>
      <point x="647" y="648"/>
      <point x="645" y="668"/>
      <point x="645" y="687" type="curve" smooth="yes"/>
      <point x="645" y="939"/>
      <point x="658" y="1193"/>
      <point x="658" y="1444" type="curve" smooth="yes"/>
      <point x="658" y="1465"/>
      <point x="661" y="1485"/>
      <point x="670" y="1504" type="curve"/>
    </contour>
  </outline>
</glyph>
<glyph name="O" format="1">
  <advance width="650"/>
  <unicode hex="004F"/>
  <outline>
    <contour>
      <point x="283" y="1477" type="curve" smooth="yes"/>
      <point x="147" y="1477"/>
      <point x="149" y="950"/>
      <point x="149" y="852" type="curve" smooth="yes"/>
      <point x="149" y="720"/>
      <point x="194" y="55"/>
      <point x="359" y="55" type="curve" smooth="yes"/>
      <point x="477" y="55"/>
      <point x="489" y="561"/>
      <point x="489" y="653" type="curve" smooth="yes"/>
      <point x="489" y="797"/>
      <point x="484" y="1477"/>
    </contour>
    <contour>
      <point x="552" y="215" type="line"/>
      <point x="550" y="113"/>
      <point x="475" y="-57"/>
      <point x="355" y="-57" type="curve" smooth="yes"/>
      <point x="83" y="-57"/>
      <point x="57" y="609"/>
      <point x="57" y="799" type="curve" smooth="yes"/>
      <point x="57" y="915"/>
      <point x="67" y="1030"/>
      <point x="73" y="1146" type="curve" smooth="yes"/>
      <point x="81" y="1292"/>
      <point x="58" y="1585"/>
      <point x="273" y="1585" type="curve" smooth="yes"/>
      <point x="471" y="1585"/>
      <point x="511" y="1400"/>
      <point x="533" y="1242" type="curve" smooth="yes"/>
      <point x="562" y="1035"/>
      <point x="582" y="827"/>
      <point x="582" y="618" type="curve" smooth="yes"/>
      <point x="582" y="531"/>
      <point x="565" y="446"/>
      <point x="564" y="359" type="curve"/>
      <point x="569" y="350" type="line"/>
      <point x="559" y="306"/>
      <point x="551" y="261"/>
      <point x="551" y="215" type="curve"/>
    </contour>
  </outline>
</glyph>
<glyph name="U" format="1">
  <advance width="699"/>
  <unicode hex="0055"/>
  <outline>
    <contour>
      <point x="627" y="646" type="curve"/>
      <point x="619" y="649" type="line"/>
      <point x="617" y="879"/>
      <point x="588" y="1108"/>
      <point x="588" y="1338" type="curve" smooth="yes"/>
      <point x="588" y="1380"/>
      <point x="602" y="1421"/>
      <point x="603" y="1463" type="curve"/>
      <point x="598" y="1474" type="line"/>
      <point x="606" y="1497" type="line"/>
      <point x="553" y="1545" type="line"/>
      <point x="544" y="1545" type="line" smooth="yes"/>
      <point x="512" y="1545"/>
      <point x="476" y="1525"/>
      <point x="476" y="1489" type="curve" smooth="yes"/>
      <point x="476" y="1372"/>
      <point x="491" y="1255"/>
      <point x="491" y="1138" type="curve" smooth="yes"/>
      <point x="491" y="1098"/>
      <point x="490" y="1059"/>
      <point x="485" y="1019" type="curve"/>
      <point x="494" y="1005" type="line"/>
      <point x="494" y="876"/>
      <point x="506" y="748"/>
      <point x="506" y="619" type="curve" smooth="yes"/>
      <point x="506" y="578"/>
      <point x="521" y="538"/>
      <point x="521" y="497" type="curve" smooth="yes"/>
      <point x="521" y="219" type="line" smooth="yes"/>
      <point x="521" y="160"/>
      <point x="520" y="35"/>
      <point x="436" y="35" type="curve" smooth="yes"/>
      <point x="295" y="35"/>
      <point x="220" y="335"/>
      <point x="220" y="444" type="curve" smooth="yes"/>
      <point x="220" y="492"/>
      <point x="209" y="641"/>
      <point x="191" y="682" type="curve"/>
      <point x="191" y="919"/>
      <point x="172" y="1157"/>
      <point x="172" y="1394" type="curve" smooth="yes"/>
      <point x="172" y="1443"/>
      <point x="166" y="1540"/>
      <point x="98" y="1540" type="curve" smooth="yes"/>
      <point x="65" y="1540"/>
      <point x="39" y="1509"/>
      <point x="39" y="1477" type="curve" smooth="yes"/>
      <point x="39" y="1462"/>
      <point x="44" y="1446"/>
      <point x="54" y="1435" type="curve"/>
      <point x="54" y="1363"/>
      <point x="95" y="480"/>
      <point x="97" y="474" type="curve" smooth="yes"/>
      <point x="159" y="283"/>
      <point x="154" y="-37"/>
      <point x="423" y="-37" type="curve" smooth="yes"/>
      <point x="605" y="-37"/>
      <point x="625" y="137"/>
      <point x="625" y="288" type="curve" smooth="yes"/>
      <point x="625" y="331"/>
      <point x="624" y="372"/>
      <point x="624" y="407" type="curve" smooth="yes"/>
      <point x="624" y="414"/>
      <point x="627" y="422"/>
      <point x="628" y="429" type="curve"/>
      <point x="645" y="445" type="line"/>
      <point x="629" y="460" type="line"/>
      <point x="628" y="502"/>
      <point x="623" y="544"/>
      <point x="623" y="586" type="curve" smooth="yes"/>
      <point x="623" y="606"/>
      <point x="624" y="626"/>
    </contour>
  </outline>
</glyph>
<glyph name="W" format="1">
  <advance width="901"/>
  <unicode hex="0057"/>
  <outline>
    <contour>
      <point x="289" y="1154" type="line"/>
      <point x="336" y="1154" type="line"/>
      <point x="336" y="1164" type="line"/>
      <point x="289" y="1164" type="line"/>
    </contour>
    <contour>
      <point x="355" y="1323" type="line"/>
      <point x="357" y="1286" type="line"/>
      <point x="357" y="1115"/>
      <point x="301" y="694"/>
      <point x="279" y="503" type="curve"/>
      <point x="251" y="697"/>
      <point x="217" y="891"/>
      <point x="201" y="1086" type="curve" smooth="yes"/>
      <point x="195" y="1164"/>
      <point x="206" y="1540"/>
      <point x="97" y="1540" type="curve" smooth="yes"/>
      <point x="66" y="1540"/>
      <point x="40" y="1517"/>
      <point x="26" y="1491" type="curve"/>
      <point x="58" y="1413"/>
      <point x="218" y="250"/>
      <point x="218" y="127" type="curve" smooth="yes"/>
      <point x="218" y="76"/>
      <point x="221" y="-29"/>
      <point x="293" y="-29" type="curve" smooth="yes"/>
      <point x="322" y="-29"/>
      <point x="352" y="-2"/>
      <point x="352" y="28" type="curve" smooth="yes"/>
      <point x="352" y="318"/>
      <point x="390" y="606"/>
      <point x="430" y="893" type="curve"/>
      <point x="462" y="717"/>
      <point x="509" y="543"/>
      <point x="532" y="365" type="curve" smooth="yes"/>
      <point x="541" y="298"/>
      <point x="545" y="-28"/>
      <point x="636" y="-28" type="curve" smooth="yes"/>
      <point x="679" y="-28"/>
      <point x="697" y="5"/>
      <point x="697" y="43" type="curve" smooth="yes"/>
      <point x="697" y="196"/>
      <point x="723" y="347"/>
      <point x="748" y="498" type="curve" smooth="yes"/>
      <point x="800" y="809"/>
      <point x="792" y="1127"/>
      <point x="844" y="1438" type="curve" smooth="yes"/>
      <point x="847" y="1455"/>
      <point x="852" y="1471"/>
      <point x="852" y="1489" type="curve"/>
      <point x="864" y="1501"/>
      <point x="873" y="1519"/>
      <point x="873" y="1536" type="curve" smooth="yes"/>
      <point x="873" y="1569"/>
      <point x="840" y="1592"/>
      <point x="810" y="1592" type="curve" smooth="yes"/>
      <point x="747" y="1592"/>
      <point x="736" y="1561"/>
      <point x="736" y="1506" type="curve" smooth="yes"/>
      <point x="736" y="1155"/>
      <point x="668" y="809"/>
      <point x="633" y="461" type="curve"/>
      <point x="587" y="740"/>
      <point x="485" y="1011"/>
      <point x="484" y="1297" type="curve"/>
      <point x="494" y="1323" type="line"/>
      <point x="494" y="1328" type="line" smooth="yes"/>
      <point x="494" y="1374"/>
      <point x="450" y="1388"/>
      <point x="411" y="1388" type="curve" smooth="yes"/>
      <point x="382" y="1388"/>
      <point x="357" y="1353"/>
      <point x="357" y="1325" type="curve"/>
    </contour>
  </outline>
</glyph>
<glyph name="underscore" format="1">
  <advance width="522"/>
  <unicode hex="005F"/>
  <outline>
    <contour>
      <point x="481" y="476" type="line" smooth="yes"/>
      <point x="481" y="621"/>
      <point x="410" y="1274"/>
      <point x="338" y="1370" type="curve" smooth="yes"/>
      <point x="298" y="1423"/>
      <point x="237" y="1436"/>
      <point x="174" y="1436" type="curve" smooth="yes"/>
      <point x="72" y="1436"/>
      <point x="56" y="1182"/>
      <point x="56" y="1109" type="curve" smooth="yes"/>
      <point x="56" y="851"/>
      <point x="75" y="594"/>
      <point x="93" y="337" type="curve" smooth="yes"/>
      <point x="102" y="211"/>
      <point x="132" y="15"/>
      <point x="296" y="15" type="curve" smooth="yes"/>
      <point x="493" y="15"/>
      <point x="426" y="174"/>
      <point x="481" y="293" type="curve"/>
    </contour>
    <contour>
      <point x="149" y="1006" type="curve" smooth="yes"/>
      <point x="149" y="1099"/>
      <point x="157" y="1351"/>
      <point x="197" y="1351" type="curve" smooth="yes"/>
      <point x="303" y="1351"/>
      <point x="311" y="1152"/>
      <point x="319" y="1078" type="curve" smooth="yes"/>
      <point x="336" y="926"/>
      <point x="342" y="772"/>
      <point x="364" y="620" type="curve" smooth="yes"/>
      <point x="376" y="533"/>
      <point x="391" y="445"/>
      <point x="391" y="357" type="curve" smooth="yes"/>
      <point x="391" y="281"/>
      <point x="389" y="115"/>
      <point x="284" y="108" type="curve"/>
      <point x="177" y="189"/>
      <point x="173" y="340"/>
      <point x="173" y="462" type="curve" smooth="yes"/>
      <point x="173" y="644"/>
      <point x="149" y="824"/>
    </contour>
    <contour>
      <point x="248" y="1543" type="line"/>
      <point x="292" y="1521" type="line"/>
      <point x="297" y="1521" type="line" smooth="yes"/>
      <point x="340" y="1521"/>
      <point x="382" y="1554"/>
      <point x="382" y="1599" type="curve" smooth="yes"/>
      <point x="382" y="1642"/>
      <point x="341" y="1668"/>
      <point x="302" y="1668" type="curve" smooth="yes"/>
      <point x="250" y="1668"/>
      <point x="227" y="1629"/>
      <point x="227" y="1581" type="curve"/>
    </contour>
  </outline>
</glyph>
<glyph name="d" format="1">
  <advance width="610"/>
  <unicode hex="0064"/>
  <outline>
    <contour>
      <point x="208" y="141" type="line"/>
      <point x="208" y="443"/>
      <point x="185" y="743"/>
      <point x="185" y="1045" type="curve" smooth="yes"/>
      <point x="185" y="1116"/>
      <point x="187" y="1188"/>
      <point x="200" y="1258" type="curve"/>
      <point x="432" y="1231"/>
      <point x="438" y="784"/>
      <point x="438" y="612" type="curve" smooth="yes"/>
      <point x="438" y="374"/>
      <point x="415" y="270"/>
      <point x="250" y="92" type="curve"/>
      <point x="216" y="92" type="line"/>
      <point x="207" y="113" type="line"/>
    </contour>
    <contour>
      <point x="555" y="622" type="line"/>
      <point x="545" y="645"/>
      <point x="542" y="675"/>
      <point x="542" y="705" type="curve" smooth="yes"/>
      <point x="542" y="741"/>
      <point x="546" y="778"/>
      <point x="546" y="808" type="curve" smooth="yes"/>
      <point x="546" y="967"/>
      <point x="525" y="1011"/>
      <point x="450" y="1148" type="curve"/>
      <point x="456" y="1161" type="line"/>
      <point x="397" y="1201"/>
      <point x="353" y="1266"/>
      <point x="286" y="1294" type="curve" smooth="yes"/>
      <point x="255" y="1307"/>
      <point x="220" y="1304"/>
      <point x="189" y="1317" type="curve"/>
      <point x="176" y="1337"/>
      <point x="152" y="1353"/>
      <point x="127" y="1353" type="curve" smooth="yes"/>
      <point x="93" y="1353"/>
      <point x="55" y="1322"/>
      <point x="55" y="1286" type="curve" smooth="yes"/>
      <point x="55" y="1268"/>
      <point x="60" y="1251"/>
      <point x="72" y="1237" type="curve"/>
      <point x="77" y="1125"/>
      <point x="79" y="1013"/>
      <point x="79" y="901" type="curve" smooth="yes"/>
      <point x="79" y="686"/>
      <point x="73" y="471"/>
      <point x="73" y="256" type="curve" smooth="yes"/>
      <point x="73" y="190"/>
      <point x="75" y="-12"/>
      <point x="125" y="-12" type="curve" smooth="yes"/>
      <point x="273" y="-12" type="line"/>
      <point x="560" y="136"/>
      <point x="504" y="355"/>
      <point x="556" y="622" type="curve"/>
    </contour>
  </outline>
</glyph>
<glyph name="o" format="1">
  <advance width="651"/>
  <unicode hex="006F"/>
  <outline>
    <contour>
      <point x="171" y="906" type="line"/>
      <point x="192" y="1026"/>
      <point x="180" y="1150"/>
      <point x="209" y="1269" type="curve"/>
      <point x="282" y="1269" type="line" smooth="yes"/>
      <point x="384" y="1269"/>
      <point x="448" y="1171"/>
      <point x="451" y="1077" type="curve"/>
      <point x="445" y="1061" type="line"/>
      <point x="455" y="1041" type="line"/>
      <point x="456" y="882"/>
      <point x="478" y="723"/>
      <point x="478" y="564" type="curve" smooth="yes"/>
      <point x="478" y="454"/>
      <point x="464" y="47"/>
      <point x="307" y="47" type="curve" smooth="yes"/>
      <point x="173" y="47"/>
      <point x="162" y="613"/>
      <point x="162" y="717" type="curve" smooth="yes"/>
      <point x="162" y="780"/>
      <point x="172" y="843"/>
      <point x="172" y="906" type="curve"/>
    </contour>
    <contour>
      <point x="315" y="-38" type="curve" smooth="yes"/>
      <point x="573" y="-38"/>
      <point x="588" y="368"/>
      <point x="588" y="551" type="curve" smooth="yes"/>
      <point x="588" y="628"/>
      <point x="584" y="706"/>
      <point x="584" y="783" type="curve"/>
      <point x="588" y="793" type="line"/>
      <point x="588" y="798" type="line" smooth="yes"/>
      <point x="588" y="932"/>
      <point x="572" y="1122"/>
      <point x="498" y="1237" type="curve" smooth="yes"/>
      <point x="425" y="1351"/>
      <point x="370" y="1319"/>
      <point x="258" y="1353" type="curve"/>
      <point x="245" y="1369"/>
      <point x="224" y="1378"/>
      <point x="204" y="1378" type="curve" smooth="yes"/>
      <point x="49" y="1378"/>
      <point x="50" y="860"/>
      <point x="50" y="751" type="curve" smooth="yes"/>
      <point x="50" y="714" type="line"/>
      <point x="52" y="714"/>
      <point x="53" y="711"/>
      <point x="53" y="704" type="curve" smooth="yes"/>
      <point x="53" y="677"/>
      <point x="51" y="658"/>
      <point x="51" y="626" type="curve" smooth="yes"/>
      <point x="51" y="410"/>
      <point x="82" y="-38"/>
    </contour>
  </outline>
</glyph>
<glyph name="w" format="1">
  <advance width="802"/>
  <unicode hex="0077"/>
  <outline>
    <contour>
      <point x="637" y="1292" type="line"/>
      <point x="637" y="1189"/>
      <point x="610" y="1087"/>
      <point x="610" y="984" type="curve" smooth="yes"/>
      <point x="610" y="758"/>
      <point x="602" y="531"/>
      <point x="572" y="307" type="curve"/>
      <point x="531" y="586"/>
      <point x="531" y="871"/>
      <point x="450" y="1143" type="curve"/>
      <point x="453" y="1160" type="line"/>
      <point x="453" y="1194"/>
      <point x="419" y="1210"/>
      <point x="389" y="1210" type="curve"/>
      <point x="334" y="1186" type="line"/>
      <point x="334" y="1141"/>
      <point x="327" y="1097"/>
      <point x="320" y="1052" type="curve" smooth="yes"/>
      <point x="310" y="988"/>
      <point x="310" y="923"/>
      <point x="308" y="858" type="curve" smooth="yes"/>
      <point x="302" y="665"/>
      <point x="275" y="474"/>
      <point x="247" y="283" type="curve"/>
      <point x="236" y="589"/>
      <point x="156" y="888"/>
      <point x="156" y="1195" type="curve" smooth="yes"/>
      <point x="156" y="1238"/>
      <point x="150" y="1329"/>
      <point x="90" y="1329" type="curve" smooth="yes"/>
      <point x="65" y="1329"/>
      <point x="42" y="1316"/>
      <point x="31" y="1293" type="curve"/>
      <point x="88" y="1164"/>
      <point x="78" y="989"/>
      <point x="88" y="850" type="curve" smooth="yes"/>
      <point x="96" y="740"/>
      <point x="120" y="632"/>
      <point x="133" y="522" type="curve" smooth="yes"/>
      <point x="143" y="436"/>
      <point x="136" y="-43"/>
      <point x="245" y="-43" type="curve" smooth="yes"/>
      <point x="323" y="-43"/>
      <point x="331" y="205"/>
      <point x="338" y="262" type="curve" smooth="yes"/>
      <point x="361" y="450"/>
      <point x="402" y="636"/>
      <point x="402" y="826" type="curve" smooth="yes"/>
      <point x="402" y="865"/>
      <point x="405" y="903"/>
      <point x="409" y="942" type="curve"/>
      <point x="439" y="741"/>
      <point x="445" y="538"/>
      <point x="471" y="337" type="curve" smooth="yes"/>
      <point x="485" y="233"/>
      <point x="515" y="131"/>
      <point x="515" y="25" type="curve" smooth="yes"/>
      <point x="515" y="-13"/>
      <point x="526" y="-69"/>
      <point x="574" y="-69" type="curve" smooth="yes"/>
      <point x="653" y="-69"/>
      <point x="653" y="86"/>
      <point x="653" y="139" type="curve" smooth="yes"/>
      <point x="653" y="192"/>
      <point x="666" y="235"/>
      <point x="675" y="286" type="curve" smooth="yes"/>
      <point x="710" y="485"/>
      <point x="716" y="695"/>
      <point x="716" y="896" type="curve"/>
      <point x="723" y="905" type="line"/>
      <point x="716" y="948" type="line"/>
      <point x="724" y="970" type="line"/>
      <point x="717" y="986" type="line"/>
      <point x="730" y="1028" type="line"/>
      <point x="728" y="1033"/>
      <point x="724" y="1041"/>
      <point x="724" y="1046" type="curve" smooth="yes"/>
      <point x="724" y="1109"/>
      <point x="724" y="1173"/>
      <point x="744" y="1234" type="curve"/>
      <point x="740" y="1245" type="line"/>
      <point x="747" y="1272"/>
      <point x="749" y="1301"/>
      <point x="749" y="1329" type="curve" smooth="yes"/>
      <point x="749" y="1360"/>
      <point x="726" y="1377"/>
      <point x="697" y="1377" type="curve" smooth="yes"/>
      <point x="652" y="1377"/>
      <point x="634" y="1357"/>
      <point x="634" y="1327" type="curve" smooth="yes"/>
      <point x="634" y="1316"/>
      <point x="636" y="1304"/>
      <point x="641" y="1291" type="curve"/>
    </contour>
  </outline>
</glyph>
<glyph name="exclamdown" format="1">
  <advance width="286"/>
  <unicode hex="00A1"/>
  <outline>
    <contour>
      <point x="88" y="27" type="curve" smooth="yes"/>
      <point x="88" y="-17"/>
      <point x="133" y="-52"/>
      <point x="175" y="-52" type="curve" smooth="yes"/>
      <point x="203" y="-52"/>
      <point x="225" y="-30"/>
      <point x="225" y="-2" type="curve" smooth="yes"/>
      <point x="225" y="357"/>
      <point x="184" y="714"/>
      <point x="184" y="1074" type="curve" smooth="yes"/>
      <point x="184" y="1112"/>
      <point x="181" y="1150"/>
      <point x="170" y="1186" type="curve"/>
      <point x="191" y="1222" type="line"/>
      <point x="100" y="1222" type="line"/>
      <point x="92" y="1163"/>
      <point x="90" y="1101"/>
      <point x="90" y="1038" type="curve" smooth="yes"/>
      <point x="90" y="924"/>
      <point x="98" y="806"/>
      <point x="98" y="699" type="curve" smooth="yes"/>
      <point x="98" y="475"/>
      <point x="88" y="251"/>
    </contour>
    <contour>
      <point x="126" y="1395" type="curve" smooth="yes"/>
      <point x="181" y="1395"/>
      <point x="210" y="1443"/>
      <point x="210" y="1494" type="curve" smooth="yes"/>
      <point x="210" y="1549"/>
      <point x="168" y="1569"/>
      <point x="119" y="1572" type="curve"/>
      <point x="115" y="1558" type="line"/>
      <point x="80" y="1549"/>
      <point x="56" y="1518"/>
      <point x="41" y="1487" type="curve"/>
      <point x="41" y="1481" type="line" smooth="yes"/>
      <point x="41" y="1438"/>
      <point x="82" y="1395"/>
    </contour>
  </outline>
</glyph>
<glyph name="sterling" format="1">
  <advance width="712"/>
  <unicode hex="00A3"/>
  <outline>
    <contour>
      <point x="94" y="2" type="line"/>
      <point x="129" y="21"/>
      <point x="241" y="70"/>
      <point x="278" y="71" type="curve"/>
      <point x="282" y="68" type="line"/>
      <point x="339" y="62"/>
      <point x="416" y="56"/>
      <point x="465" y="25" type="curve"/>
      <point x="478" y="34" type="line"/>
      <point x="505" y="33"/>
      <point x="542" y="27"/>
      <point x="578" y="27" type="curve" smooth="yes"/>
      <point x="634" y="27"/>
      <point x="684" y="41"/>
      <point x="684" y="109" type="curve"/>
      <point x="635" y="144" type="line"/>
      <point x="606" y="130"/>
      <point x="574" y="125"/>
      <point x="542" y="125" type="curve" smooth="yes"/>
      <point x="452" y="125"/>
      <point x="367" y="162"/>
      <point x="277" y="169" type="curve"/>
      <point x="298" y="238"/>
      <point x="324" y="305"/>
      <point x="324" y="378" type="curve" smooth="yes"/>
      <point x="324" y="548"/>
      <point x="248" y="717"/>
      <point x="217" y="883" type="curve"/>
      <point x="269" y="891"/>
      <point x="453" y="873"/>
      <point x="453" y="952" type="curve" smooth="yes"/>
      <point x="453" y="980"/>
      <point x="428" y="1002"/>
      <point x="401" y="1002" type="curve" smooth="yes"/>
      <point x="332" y="1002"/>
      <point x="265" y="979"/>
      <point x="196" y="976" type="curve"/>
      <point x="176" y="1071"/>
      <point x="177" y="1173"/>
      <point x="177" y="1270" type="curve" smooth="yes"/>
      <point x="177" y="1318"/>
      <point x="203" y="1486"/>
      <point x="231" y="1519" type="curve"/>
      <point x="238" y="1519" type="line"/>
      <point x="257" y="1536" type="line"/>
      <point x="265" y="1539" type="line"/>
      <point x="285" y="1536"/>
      <point x="302" y="1523"/>
      <point x="315" y="1509" type="curve"/>
      <point x="324" y="1509" type="line"/>
      <point x="328" y="1492"/>
      <point x="334" y="1475"/>
      <point x="342" y="1459" type="curve"/>
      <point x="342" y="1422" type="line"/>
      <point x="365" y="1380"/>
      <point x="369" y="1359"/>
      <point x="423" y="1359" type="curve"/>
      <point x="455" y="1394" type="line"/>
      <point x="455" y="1403" type="line" smooth="yes"/>
      <point x="455" y="1474"/>
      <point x="368" y="1632"/>
      <point x="288" y="1632" type="curve" smooth="yes"/>
      <point x="223" y="1632" type="line" smooth="yes"/>
      <point x="93" y="1632"/>
      <point x="78" y="1329"/>
      <point x="78" y="1238" type="curve" smooth="yes"/>
      <point x="78" y="1147"/>
      <point x="100" y="1057"/>
      <point x="103" y="966" type="curve"/>
      <point x="86" y="956"/>
      <point x="76" y="937"/>
      <point x="76" y="918" type="curve" smooth="yes"/>
      <point x="76" y="893"/>
      <point x="95" y="871"/>
      <point x="120" y="867" type="curve"/>
      <point x="161" y="707"/>
      <point x="227" y="550"/>
      <point x="227" y="382" type="curve" smooth="yes"/>
      <point x="227" y="325"/>
      <point x="212" y="194"/>
      <point x="165" y="158" type="curve" smooth="yes"/>
      <point x="123" y="125"/>
      <point x="36" y="123"/>
      <point x="36" y="53" type="curve" smooth="yes"/>
      <point x="36" y="23"/>
      <point x="69" y="8"/>
      <point x="94" y="6" type="curve"/>
    </contour>
  </outline>
</glyph>
<glyph name="currency" format="1">
  <advance width="828"/>
  <unicode hex="00A4"/>
  <outline>
    <contour>
      <point x="213" y="696" type="line"/>
      <point x="213" y="774"/>
      <point x="244" y="1009"/>
      <point x="269" y="1009" type="curve" smooth="yes"/>
      <point x="310" y="1009"/>
      <point x="316" y="1055"/>
      <point x="316" y="1086" type="curve"/>
      <point x="301" y="1100" type="line"/>
      <point x="317" y="1121"/>
      <point x="382" y="1181"/>
      <point x="408" y="1181" type="curve" smooth="yes"/>
      <point x="452" y="1181"/>
      <point x="501" y="1165"/>
      <point x="531" y="1132" type="curve"/>
      <point x="534" y="1103"/>
      <point x="554" y="1077"/>
      <point x="583" y="1071" type="curve"/>
      <point x="619" y="1027"/>
      <point x="644" y="840"/>
      <point x="644" y="779" type="curve" smooth="yes"/>
      <point x="644" y="640"/>
      <point x="607" y="305"/>
      <point x="417" y="305" type="curve" smooth="yes"/>
      <point x="340" y="305"/>
      <point x="267" y="332"/>
      <point x="267" y="421" type="curve"/>
      <point x="220" y="462"/>
      <point x="213" y="527"/>
      <point x="213" y="585" type="curve" smooth="yes"/>
      <point x="213" y="614"/>
      <point x="218" y="641"/>
      <point x="218" y="669" type="curve" smooth="yes"/>
      <point x="218" y="678"/>
      <point x="217" y="687"/>
      <point x="216" y="696" type="curve"/>
    </contour>
    <contour>
      <point x="645" y="251" type="line" smooth="yes"/>
      <point x="649" y="212"/>
      <point x="688" y="195"/>
      <point x="723" y="195" type="curve" smooth="yes"/>
      <point x="751" y="195"/>
      <point x="773" y="219"/>
      <point x="773" y="247" type="curve" smooth="yes"/>
      <point x="773" y="308"/>
      <point x="696" y="335"/>
      <point x="696" y="396" type="curve" smooth="yes"/>
      <point x="696" y="525"/>
      <point x="763" y="643"/>
      <point x="763" y="772" type="curve" smooth="yes"/>
      <point x="763" y="902"/>
      <point x="673" y="1019"/>
      <point x="673" y="1141" type="curve" smooth="yes"/>
      <point x="673" y="1165"/>
      <point x="764" y="1241"/>
      <point x="768" y="1304" type="curve"/>
      <point x="725" y="1351" type="line"/>
      <point x="715" y="1351" type="line" smooth="yes"/>
      <point x="647" y="1351"/>
      <point x="620" y="1260"/>
      <point x="586" y="1216" type="curve"/>
      <point x="520" y="1259"/>
      <point x="443" y="1285"/>
      <point x="364" y="1285" type="curve" smooth="yes"/>
      <point x="322" y="1285"/>
      <point x="261" y="1202"/>
      <point x="234" y="1172" type="curve"/>
      <point x="207" y="1209"/>
      <point x="178" y="1255"/>
      <point x="126" y="1255" type="curve" smooth="yes"/>
      <point x="101" y="1255"/>
      <point x="78" y="1235"/>
      <point x="78" y="1209" type="curve" smooth="yes"/>
      <point x="78" y="1160"/>
      <point x="152" y="1119"/>
      <point x="175" y="1078" type="curve"/>
      <point x="107" y="977"/>
      <point x="103" y="692"/>
      <point x="103" y="567" type="curve" smooth="yes"/>
      <point x="103" y="507"/>
      <point x="106" y="446"/>
      <point x="135" y="392" type="curve"/>
      <point x="114" y="360"/>
      <point x="49" y="315"/>
      <point x="49" y="276" type="curve" smooth="yes"/>
      <point x="49" y="236"/>
      <point x="69" y="201"/>
      <point x="113" y="201" type="curve" smooth="yes"/>
      <point x="162" y="201"/>
      <point x="182" y="253"/>
      <point x="199" y="290" type="curve"/>
      <point x="247" y="243"/>
      <point x="312" y="205"/>
      <point x="381" y="205" type="curve" smooth="yes"/>
      <point x="468" y="205"/>
      <point x="555" y="235"/>
      <point x="620" y="293" type="curve"/>
      <point x="645" y="248" type="line"/>
    </contour>
  </outline>
</glyph>
<glyph name="yen" format="1">
  <advance width="890"/>
  <unicode hex="00A5"/>
  <outline>
    <contour>
      <point x="23" y="1764" type="line"/>
      <point x="23" y="1705" type="line"/>
      <point x="216" y="1535"/>
      <point x="248" y="1251"/>
      <point x="428" y="1071" type="curve"/>
      <point x="428" y="1059" type="line"/>
      <point x="394" y="1054"/>
      <point x="360" y="1052"/>
      <point x="326" y="1052" type="curve" smooth="yes"/>
      <point x="273" y="1052"/>
      <point x="221" y="1056"/>
      <point x="168" y="1056" type="curve"/>
      <point x="143" y="1017" type="line"/>
      <point x="143" y="1010" type="line" smooth="yes"/>
      <point x="143" y="960"/>
      <point x="206" y="948"/>
      <point x="275" y="948" type="curve" smooth="yes"/>
      <point x="336" y="948"/>
      <point x="401" y="957"/>
      <point x="428" y="958" type="curve"/>
      <point x="429" y="954" type="line"/>
      <point x="429" y="930"/>
      <point x="429" y="907"/>
      <point x="427" y="883" type="curve"/>
      <point x="331" y="878"/>
      <point x="234" y="875"/>
      <point x="138" y="875" type="curve"/>
      <point x="122" y="823" type="line"/>
      <point x="133" y="798"/>
      <point x="152" y="776"/>
      <point x="176" y="763" type="curve"/>
      <point x="207" y="762" type="line" smooth="yes"/>
      <point x="277" y="760"/>
      <point x="348" y="774"/>
      <point x="418" y="773" type="curve"/>
      <point x="418" y="663"/>
      <point x="402" y="112"/>
      <point x="375" y="45" type="curve"/>
      <point x="375" y="40" type="line" smooth="yes"/>
      <point x="375" y="6"/>
      <point x="412" y="-8"/>
      <point x="440" y="-8" type="curve" smooth="yes"/>
      <point x="501" y="-8"/>
      <point x="509" y="45"/>
      <point x="509" y="94" type="curve" smooth="yes"/>
      <point x="509" y="111"/>
      <point x="508" y="128"/>
      <point x="508" y="142" type="curve" smooth="yes"/>
      <point x="508" y="354"/>
      <point x="538" y="564"/>
      <point x="539" y="776" type="curve"/>
      <point x="705" y="776" type="line"/>
      <point x="684" y="766" type="line"/>
      <point x="792" y="766" type="line" smooth="yes"/>
      <point x="821" y="766"/>
      <point x="852" y="789"/>
      <point x="852" y="820" type="curve" smooth="yes"/>
      <point x="852" y="881"/>
      <point x="772" y="895"/>
      <point x="692" y="895" type="curve" smooth="yes"/>
      <point x="630" y="895"/>
      <point x="569" y="887"/>
      <point x="544" y="887" type="curve"/>
      <point x="544" y="950" type="line"/>
      <point x="735" y="948" type="line" smooth="yes"/>
      <point x="773" y="947"/>
      <point x="857" y="951"/>
      <point x="857" y="1005" type="curve" smooth="yes"/>
      <point x="857" y="1054"/>
      <point x="797" y="1066"/>
      <point x="730" y="1066" type="curve" smooth="yes"/>
      <point x="669" y="1066"/>
      <point x="603" y="1056"/>
      <point x="575" y="1056" type="curve"/>
      <point x="550" y="1059" type="line"/>
      <point x="565" y="1121"/>
      <point x="598" y="1176"/>
      <point x="614" y="1238" type="curve" smooth="yes"/>
      <point x="661" y="1422"/>
      <point x="725" y="1589"/>
      <point x="786" y="1768" type="curve"/>
      <point x="788" y="1778" type="line"/>
      <point x="788" y="1809"/>
      <point x="760" y="1832"/>
      <point x="730" y="1832" type="curve" smooth="yes"/>
      <point x="633" y="1832"/>
      <point x="514" y="1302"/>
      <point x="477" y="1207" type="curve"/>
      <point x="420" y="1293"/>
      <point x="175" y="1774"/>
      <point x="76" y="1774" type="curve" smooth="yes"/>
      <point x="59" y="1774"/>
      <point x="42" y="1766"/>
      <point x="26" y="1759" type="curve"/>
    </contour>
  </outline>
</glyph>
<glyph name="dieresis" format="1">
  <advance width="694"/>
  <unicode hex="00A8"/>
  <outline>
    <contour>
      <point x="447" y="1023" type="curve" smooth="yes"/>
      <point x="447" y="988"/>
      <point x="475" y="954"/>
      <point x="511" y="954" type="curve" smooth="yes"/>
      <point x="551" y="954"/>
      <point x="588" y="983"/>
      <point x="588" y="1025" type="curve" smooth="yes"/>
      <point x="588" y="1061"/>
      <point x="557" y="1098"/>
      <point x="520" y="1098" type="curve" smooth="yes"/>
      <point x="481" y="1098"/>
      <point x="447" y="1062"/>
    </contour>
    <contour>
      <point x="226" y="954" type="curve" smooth="yes"/>
      <point x="265" y="954"/>
      <point x="308" y="984"/>
      <point x="308" y="1026" type="curve" smooth="yes"/>
      <point x="308" y="1065"/>
      <point x="275" y="1095"/>
      <point x="237" y="1095" type="curve" smooth="yes"/>
      <point x="196" y="1095"/>
      <point x="167" y="1061"/>
      <point x="167" y="1021" type="curve" smooth="yes"/>
      <point x="167" y="984"/>
      <point x="187" y="954"/>
    </contour>
  </outline>
</glyph>
<glyph name="copyright" format="1">
  <advance width="1113"/>
  <unicode hex="00A9"/>
  <outline>
    <contour>
      <point x="398" y="911" type="line"/>
      <point x="394" y="921" type="line"/>
      <point x="406" y="1026"/>
      <point x="407" y="1387"/>
      <point x="560" y="1387" type="curve" smooth="yes"/>
      <point x="650" y="1387"/>
      <point x="642" y="1223"/>
      <point x="742" y="1223" type="curve" smooth="yes"/>
      <point x="771" y="1223"/>
      <point x="792" y="1247"/>
      <point x="792" y="1275" type="curve" smooth="yes"/>
      <point x="792" y="1380"/>
      <point x="653" y="1499"/>
      <point x="551" y="1499" type="curve" smooth="yes"/>
      <point x="265" y="1499"/>
      <point x="268" y="1009"/>
      <point x="268" y="813" type="curve" smooth="yes"/>
      <point x="268" y="570"/>
      <point x="281" y="504"/>
      <point x="393" y="291" type="curve"/>
      <point x="457" y="265"/>
      <point x="514" y="225"/>
      <point x="585" y="225" type="curve" smooth="yes"/>
      <point x="659" y="225"/>
      <point x="811" y="283"/>
      <point x="811" y="372" type="curve" smooth="yes"/>
      <point x="811" y="404"/>
      <point x="794" y="440"/>
      <point x="757" y="440" type="curve" smooth="yes"/>
      <point x="691" y="440"/>
      <point x="673" y="332"/>
      <point x="575" y="332" type="curve" smooth="yes"/>
      <point x="369" y="332"/>
      <point x="388" y="748"/>
      <point x="388" y="809" type="curve" smooth="yes"/>
      <point x="388" y="844"/>
      <point x="389" y="878"/>
      <point x="397" y="911" type="curve"/>
    </contour>
    <contour>
      <point x="172" y="940" type="line"/>
      <point x="172" y="1160"/>
      <point x="214" y="1713"/>
      <point x="520" y="1713" type="curve" smooth="yes"/>
      <point x="565" y="1713"/>
      <point x="604" y="1683"/>
      <point x="638" y="1658" type="curve" smooth="yes"/>
      <point x="817" y="1528"/>
      <point x="876" y="1328"/>
      <point x="915" y="1121" type="curve" smooth="yes"/>
      <point x="929" y="1046"/>
      <point x="954" y="971"/>
      <point x="954" y="894" type="curve" smooth="yes"/>
      <point x="954" y="589" type="line" smooth="yes"/>
      <point x="954" y="558"/>
      <point x="930" y="516"/>
      <point x="930" y="483" type="curve" smooth="yes"/>
      <point x="930" y="476"/>
      <point x="931" y="470"/>
      <point x="933" y="464" type="curve"/>
      <point x="878" y="234"/>
      <point x="776" y="81"/>
      <point x="519" y="81" type="curve" smooth="yes"/>
      <point x="218" y="81"/>
      <point x="206" y="366"/>
      <point x="192" y="595" type="curve" smooth="yes"/>
      <point x="185" y="710"/>
      <point x="173" y="825"/>
      <point x="173" y="940" type="curve"/>
    </contour>
    <contour>
      <point x="55" y="924" type="curve" smooth="yes"/>
      <point x="55" y="836"/>
      <point x="62" y="748"/>
      <point x="67" y="660" type="curve" smooth="yes"/>
      <point x="87" y="311"/>
      <point x="100" y="-20"/>
      <point x="545" y="-20" type="curve" smooth="yes"/>
      <point x="985" y="-20"/>
      <point x="1068" y="403"/>
      <point x="1068" y="757" type="curve" smooth="yes"/>
      <point x="1068" y="1105"/>
      <point x="958" y="1812"/>
      <point x="496" y="1812" type="curve" smooth="yes"/>
      <point x="105" y="1812"/>
      <point x="55" y="1208"/>
    </contour>
  </outline>
</glyph>
<glyph name="uni00AD" format="1">
  <advance width="587"/>
  <unicode hex="00AD"/>
  <outline>
    <contour>
      <point x="516" y="739" type="curve" smooth="yes"/>
      <point x="516" y="775"/>
      <point x="481" y="798"/>
      <point x="448" y="798" type="curve" smooth="yes"/>
      <point x="391" y="798"/>
      <point x="74" y="787"/>
      <point x="74" y="715" type="curve" smooth="yes"/>
      <point x="74" y="680"/>
      <point x="108" y="656"/>
      <point x="141" y="656" type="curve" smooth="yes"/>
      <point x="199" y="656"/>
      <point x="516" y="666"/>
    </contour>
  </outline>
</glyph>
<glyph name="guillemotright" format="1">
  <advance width="696"/>
  <unicode hex="00BB"/>
  <outline>
    <contour>
      <point x="323" y="1490" type="curve" smooth="yes"/>
      <point x="289" y="1490"/>
      <point x="261" y="1467"/>
      <point x="258" y="1433" type="curve"/>
      <point x="407" y="1211"/>
      <point x="439" y="928"/>
      <point x="554" y="689" type="curve"/>
      <point x="520" y="528"/>
      <point x="196" y="68"/>
      <point x="196" y="-10" type="curve" smooth="yes"/>
      <point x="196" y="-43"/>
      <point x="235" y="-56"/>
      <point x="261" y="-56" type="curve" smooth="yes"/>
      <point x="305" y="-56"/>
      <point x="664" y="610"/>
      <point x="664" y="700" type="curve" smooth="yes"/>
      <point x="664" y="751"/>
      <point x="442" y="1264"/>
      <point x="404" y="1363" type="curve"/>
      <point x="399" y="1402"/>
      <point x="370" y="1457"/>
      <point x="342" y="1485" type="curve"/>
      <point x="341" y="1484" type="line"/>
      <point x="341" y="1486" type="line"/>
      <point x="338" y="1486" type="line" smooth="yes"/>
      <point x="334" y="1487"/>
      <point x="327" y="1490"/>
    </contour>
    <contour>
      <point x="130" y="-19" type="curve"/>
      <point x="487" y="698" type="line"/>
      <point x="484" y="803"/>
      <point x="301" y="1123"/>
      <point x="263" y="1255" type="curve" smooth="yes"/>
      <point x="243" y="1324"/>
      <point x="241" y="1410"/>
      <point x="167" y="1444" type="curve"/>
      <point x="157" y="1446" type="line"/>
      <point x="112" y="1411" type="line"/>
      <point x="114" y="1202"/>
      <point x="369" y="908"/>
      <point x="369" y="702" type="curve" smooth="yes"/>
      <point x="369" y="680"/>
      <point x="95" y="136"/>
      <point x="59" y="69" type="curve"/>
      <point x="34" y="49" type="line"/>
      <point x="35" y="19"/>
      <point x="51" y="-23"/>
      <point x="88" y="-23" type="curve" smooth="yes"/>
      <point x="101" y="-23"/>
      <point x="113" y="-19"/>
      <point x="126" y="-19" type="curve" smooth="yes"/>
      <point x="127" y="-19"/>
      <point x="129" y="-19"/>
    </contour>
  </outline>
</glyph>
<glyph name="Eth" format="1">
  <advance width="810"/>
  <unicode hex="00D0"/>
  <outline>
    <contour>
      <point x="298" y="1141" type="line"/>
      <point x="386" y="1152"/>
      <point x="475" y="1153"/>
      <point x="563" y="1153" type="curve"/>
      <point x="597" y="1194" type="line"/>
      <point x="595" y="1230"/>
      <point x="572" y="1274"/>
      <point x="530" y="1274" type="curve" smooth="yes"/>
      <point x="452" y="1274"/>
      <point x="375" y="1256"/>
      <point x="297" y="1252" type="curve"/>
      <point x="259" y="1440"/>
      <point x="255" y="1635"/>
      <point x="255" y="1829" type="curve" smooth="yes"/>
      <point x="255" y="1889"/>
      <point x="255" y="1949"/>
      <point x="255" y="2009" type="curve" smooth="yes"/>
      <point x="255" y="2038"/>
      <point x="255" y="2068"/>
      <point x="255" y="2097" type="curve"/>
      <point x="628" y="1955"/>
      <point x="637" y="1314"/>
      <point x="637" y="983" type="curve" smooth="yes"/>
      <point x="637" y="677"/>
      <point x="600" y="419"/>
      <point x="353" y="204" type="curve"/>
      <point x="348" y="517"/>
      <point x="308" y="827"/>
      <point x="300" y="1140" type="curve"/>
    </contour>
    <contour>
      <point x="318" y="45" type="line"/>
      <point x="592" y="186"/>
      <point x="754" y="507"/>
      <point x="754" y="809" type="curve" smooth="yes"/>
      <point x="754" y="1154"/>
      <point x="637" y="1486"/>
      <point x="637" y="1831" type="curve" smooth="yes"/>
      <point x="637" y="1966"/>
      <point x="327" y="2220"/>
      <point x="193" y="2220" type="curve" smooth="yes"/>
      <point x="162" y="2220"/>
      <point x="137" y="2182"/>
      <point x="137" y="2154" type="curve" smooth="yes"/>
      <point x="137" y="1850"/>
      <point x="179" y="1547"/>
      <point x="181" y="1243" type="curve"/>
      <point x="150" y="1244" type="line" smooth="yes"/>
      <point x="111" y="1245"/>
      <point x="25" y="1239"/>
      <point x="25" y="1184" type="curve" smooth="yes"/>
      <point x="25" y="1154"/>
      <point x="44" y="1125"/>
      <point x="77" y="1125" type="curve" smooth="yes"/>
      <point x="113" y="1125"/>
      <point x="149" y="1132"/>
      <point x="184" y="1137" type="curve"/>
      <point x="236" y="797"/>
      <point x="236" y="450"/>
      <point x="236" y="107" type="curve"/>
      <point x="253" y="74"/>
      <point x="284" y="57"/>
      <point x="318" y="47" type="curve"/>
    </contour>
  </outline>
</glyph>
<glyph name="Oslash" format="1">
  <advance width="561"/>
  <unicode hex="00D8"/>
  <outline>
    <contour>
      <point x="413" y="1420" type="line"/>
      <point x="401" y="1431"/>
      <point x="377" y="1456"/>
      <point x="377" y="1473" type="curve" smooth="yes"/>
      <point x="377" y="1583"/>
      <point x="419" y="1689"/>
      <point x="423" y="1799" type="curve"/>
      <point x="344" y="1799" type="line"/>
      <point x="324" y="1717"/>
      <point x="319" y="1633"/>
      <point x="297" y="1552" type="curve"/>
      <point x="289" y="1548" type="line"/>
      <point x="274" y="1560"/>
      <point x="253" y="1570"/>
      <point x="233" y="1570" type="curve" smooth="yes"/>
      <point x="60" y="1570"/>
      <point x="60" y="1226"/>
      <point x="60" y="1108" type="curve" smooth="yes"/>
      <point x="60" y="991"/>
      <point x="57" y="870"/>
      <point x="57" y="747" type="curve" smooth="yes"/>
      <point x="57" y="559"/>
      <point x="64" y="370"/>
      <point x="103" y="195" type="curve" smooth="yes"/>
      <point x="107" y="176"/>
      <point x="121" y="147"/>
      <point x="121" y="129" type="curve" smooth="yes"/>
      <point x="121" y="8"/>
      <point x="62" y="-103"/>
      <point x="62" y="-224" type="curve"/>
      <point x="132" y="-280" type="line"/>
      <point x="149" y="-185"/>
      <point x="170" y="-91"/>
      <point x="186" y="4" type="curve"/>
      <point x="212" y="-10"/>
      <point x="242" y="-16"/>
      <point x="272" y="-16" type="curve" smooth="yes"/>
      <point x="497" y="-16"/>
      <point x="498" y="301"/>
      <point x="498" y="459" type="curve" smooth="yes"/>
      <point x="498" y="587"/>
      <point x="494" y="715"/>
      <point x="492" y="843" type="curve" smooth="yes"/>
      <point x="490" y="962"/>
      <point x="460" y="1086"/>
      <point x="457" y="1207" type="curve"/>
      <point x="461" y="1209" type="line"/>
      <point x="461" y="1223" type="line" smooth="yes"/>
      <point x="461" y="1272"/>
      <point x="438" y="1317"/>
      <point x="437" y="1366" type="curve"/>
      <point x="409" y="1412" type="line"/>
    </contour>
    <contour>
      <point x="288" y="72" type="curve" smooth="yes"/>
      <point x="231" y="72"/>
      <point x="222" y="92"/>
      <point x="222" y="145" type="curve" smooth="yes"/>
      <point x="222" y="176"/>
      <point x="230" y="207"/>
      <point x="236" y="237" type="curve" smooth="yes"/>
      <point x="304" y="586"/>
      <point x="307" y="945"/>
      <point x="354" y="1297" type="curve"/>
      <point x="401" y="1022"/>
      <point x="399" y="742"/>
      <point x="399" y="464" type="curve" smooth="yes"/>
      <point x="399" y="319"/>
      <point x="388" y="72"/>
    </contour>
    <contour>
      <point x="238" y="1492" type="line"/>
      <point x="255" y="1491"/>
      <point x="278" y="1478"/>
      <point x="278" y="1458" type="curve" smooth="yes"/>
      <point x="278" y="1382"/>
      <point x="263" y="1307"/>
      <point x="254" y="1231" type="curve" smooth="yes"/>
      <point x="226" y="989"/>
      <point x="208" y="745"/>
      <point x="180" y="503" type="curve"/>
      <point x="170" y="619"/>
      <point x="151" y="734"/>
      <point x="151" y="850" type="curve" smooth="yes"/>
      <point x="151" y="996"/>
      <point x="152" y="1386"/>
      <point x="198" y="1480" type="curve"/>
      <point x="203" y="1478" type="line"/>
      <point x="238" y="1491" type="line"/>
    </contour>
  </outline>
</glyph>
<glyph name="ntilde" format="1">
  <advance width="827"/>
  <unicode hex="00F1"/>
  <outline>
    <contour>
      <point x="185" y="641" type="line"/>
      <point x="185" y="697"/>
      <point x="176" y="752"/>
      <point x="176" y="808" type="curve" smooth="yes"/>
      <point x="176" y="1068" type="line" smooth="yes"/>
      <point x="176" y="1094"/>
      <point x="178" y="1119"/>
      <point x="181" y="1145" type="curve"/>
      <point x="237" y="1016"/>
      <point x="536" y="219"/>
      <point x="536" y="102" type="curve" smooth="yes"/>
      <point x="536" y="98"/>
      <point x="535" y="95"/>
      <point x="535" y="93" type="curve"/>
      <point x="547" y="66"/>
      <point x="557" y="-11"/>
      <point x="597" y="-11" type="curve" smooth="yes"/>
      <point x="604" y="-11"/>
      <point x="611" y="-9"/>
      <point x="619" y="-4" type="curve"/>
      <point x="651" y="-35" type="line"/>
      <point x="651" y="4" type="line"/>
      <point x="676" y="11" type="line"/>
      <point x="728" y="92"/>
      <point x="749" y="951"/>
      <point x="750" y="1109" type="curve"/>
      <point x="760" y="1125" type="line"/>
      <point x="760" y="1264" type="line" smooth="yes"/>
      <point x="760" y="1302"/>
      <point x="734" y="1344"/>
      <point x="692" y="1344" type="curve" smooth="yes"/>
      <point x="649" y="1344"/>
      <point x="641" y="1315"/>
      <point x="641" y="1283" type="curve" smooth="yes"/>
      <point x="641" y="1264"/>
      <point x="644" y="1244"/>
      <point x="644" y="1228" type="curve" smooth="yes"/>
      <point x="644" y="881"/>
      <point x="636" y="534"/>
      <point x="603" y="189" type="curve"/>
      <point x="561" y="293"/>
      <point x="546" y="405"/>
      <point x="512" y="511" type="curve" smooth="yes"/>
      <point x="428" y="773"/>
      <point x="294" y="1013"/>
      <point x="220" y="1280" type="curve" smooth="yes"/>
      <point x="214" y="1300"/>
      <point x="195" y="1354"/>
      <point x="166" y="1354" type="curve" smooth="yes"/>
      <point x="161" y="1354"/>
      <point x="156" y="1352"/>
      <point x="151" y="1349" type="curve"/>
      <point x="139" y="1362" type="line"/>
      <point x="85" y="1322"/>
      <point x="76" y="1274"/>
      <point x="76" y="1211" type="curve" smooth="yes"/>
      <point x="76" y="1084"/>
      <point x="64" y="956"/>
      <point x="64" y="829" type="curve" smooth="yes"/>
      <point x="64" y="595"/>
      <point x="68" y="361"/>
      <point x="68" y="127" type="curve" smooth="yes"/>
      <point x="68" y="84"/>
      <point x="76" y="2"/>
      <point x="135" y="2" type="curve" smooth="yes"/>
      <point x="169" y="2"/>
      <point x="197" y="32"/>
      <point x="197" y="66" type="curve" smooth="yes"/>
      <point x="197" y="83"/>
      <point x="196" y="99"/>
      <point x="189" y="114" type="curve"/>
      <point x="189" y="298" type="line"/>
      <point x="172" y="342"/>
      <point x="174" y="599"/>
      <point x="174" y="646" type="curve"/>
      <point x="182" y="640" type="line"/>
    </contour>
    <contour>
      <point x="141" y="1539" type="line"/>
      <point x="141" y="1497"/>
      <point x="179" y="1480"/>
      <point x="216" y="1480" type="curve"/>
      <point x="252" y="1530" type="line"/>
      <point x="240" y="1578" type="line"/>
      <point x="269" y="1609" type="line"/>
      <point x="288" y="1609" type="line"/>
      <point x="293" y="1607" type="line"/>
      <point x="344" y="1548"/>
      <point x="405" y="1481"/>
      <point x="490" y="1481" type="curve" smooth="yes"/>
      <point x="561" y="1481"/>
      <point x="622" y="1542"/>
      <point x="622" y="1613" type="curve" smooth="yes"/>
      <point x="622" y="1655"/>
      <point x="601" y="1707"/>
      <point x="552" y="1707" type="curve" smooth="yes"/>
      <point x="531" y="1707"/>
      <point x="515" y="1693"/>
      <point x="506" y="1675" type="curve"/>
      <point x="508" y="1660"/>
      <point x="519" y="1643"/>
      <point x="519" y="1630" type="curve" smooth="yes"/>
      <point x="519" y="1604"/>
      <point x="503" y="1601"/>
      <point x="485" y="1585" type="curve"/>
      <point x="480" y="1587" type="line"/>
      <point x="466" y="1584" type="line"/>
      <point x="434" y="1584"/>
      <point x="402" y="1629"/>
      <point x="392" y="1656" type="curve"/>
      <point x="297" y="1708" type="line"/>
      <point x="290" y="1708" type="line" smooth="yes"/>
      <point x="195" y="1708"/>
      <point x="142" y="1627"/>
      <point x="142" y="1539" type="curve"/>
    </contour>
  </outline>
</glyph>
<glyph name="ograve" format="1">
  <advance width="651"/>
  <unicode hex="00F2"/>
  <outline>
    <contour>
      <point x="315" y="-40" type="curve" smooth="yes"/>
      <point x="573" y="-40"/>
      <point x="588" y="366"/>
      <point x="588" y="549" type="curve" smooth="yes"/>
      <point x="588" y="626"/>
      <point x="584" y="704"/>
      <point x="584" y="781" type="curve"/>
      <point x="588" y="791" type="line"/>
      <point x="588" y="796" type="line" smooth="yes"/>
      <point x="588" y="930"/>
      <point x="572" y="1120"/>
      <point x="498" y="1235" type="curve" smooth="yes"/>
      <point x="425" y="1349"/>
      <point x="370" y="1317"/>
      <point x="258" y="1351" type="curve"/>
      <point x="245" y="1367"/>
      <point x="224" y="1376"/>
      <point x="204" y="1376" type="curve" smooth="yes"/>
      <point x="49" y="1376"/>
      <point x="50" y="858"/>
      <point x="50" y="749" type="curve" smooth="yes"/>
      <point x="50" y="712" type="line"/>
      <point x="52" y="712"/>
      <point x="53" y="709"/>
      <point x="53" y="702" type="curve" smooth="yes"/>
      <point x="53" y="675"/>
      <point x="51" y="656"/>
      <point x="51" y="624" type="curve" smooth="yes"/>
      <point x="51" y="408"/>
      <point x="82" y="-40"/>
    </contour>
    <contour>
      <point x="171" y="905" type="line"/>
      <point x="192" y="1025"/>
      <point x="180" y="1149"/>
      <point x="209" y="1268" type="curve"/>
      <point x="282" y="1268" type="line" smooth="yes"/>
      <point x="385" y="1268"/>
      <point x="448" y="1169"/>
      <point x="451" y="1075" type="curve"/>
      <point x="445" y="1059" type="line"/>
      <point x="455" y="1039" type="line"/>
      <point x="456" y="880"/>
      <point x="478" y="721"/>
      <point x="478" y="562" type="curve" smooth="yes"/>
      <point x="478" y="452"/>
      <point x="464" y="45"/>
      <point x="307" y="45" type="curve" smooth="yes"/>
      <point x="173" y="45"/>
      <point x="162" y="611"/>
      <point x="162" y="715" type="curve" smooth="yes"/>
      <point x="162" y="778"/>
      <point x="172" y="841"/>
      <point x="172" y="904" type="curve"/>
    </contour>
    <contour>
      <point x="83" y="1548" type="curve"/>
      <point x="122" y="1533"/>
      <point x="261" y="1475"/>
      <point x="293" y="1475" type="curve" smooth="yes"/>
      <point x="315" y="1475"/>
      <point x="341" y="1491"/>
      <point x="341" y="1515" type="curve" smooth="yes"/>
      <point x="341" y="1584"/>
      <point x="155" y="1632"/>
      <point x="101" y="1651" type="curve"/>
      <point x="70" y="1678"/>
      <point x="26" y="1676"/>
      <point x="-13" y="1676" type="curve"/>
      <point x="-36" y="1662"/>
      <point x="-41" y="1633"/>
      <point x="-41" y="1608" type="curve" smooth="yes"/>
      <point x="-41" y="1557"/>
      <point x="6" y="1546"/>
      <point x="48" y="1546" type="curve" smooth="yes"/>
      <point x="60" y="1546"/>
      <point x="73" y="1547"/>
    </contour>
  </outline>
</glyph>
<glyph name="ocircumflex" format="1">
  <advance width="651"/>
  <unicode hex="00F4"/>
  <outline>
    <contour>
      <point x="304" y="1742" type="curve"/>
      <point x="323" y="1663"/>
      <point x="336" y="1583"/>
      <point x="344" y="1503" type="curve"/>
      <point x="388" y="1476" type="line"/>
      <point x="416" y="1478"/>
      <point x="453" y="1493"/>
      <point x="453" y="1526" type="curve" smooth="yes"/>
      <point x="453" y="1533"/>
      <point x="448" y="1544"/>
      <point x="446" y="1551" type="curve"/>
      <point x="448" y="1561" type="line"/>
      <point x="434" y="1592" type="line"/>
      <point x="435" y="1603" type="line"/>
      <point x="435" y="1676"/>
      <point x="373" y="1755"/>
      <point x="373" y="1841" type="curve" smooth="yes"/>
      <point x="373" y="1875"/>
      <point x="360" y="1908"/>
      <point x="321" y="1908" type="curve" smooth="yes"/>
      <point x="246" y="1908"/>
      <point x="131" y="1594"/>
      <point x="124" y="1525" type="curve"/>
      <point x="191" y="1477" type="line"/>
      <point x="258" y="1561"/>
      <point x="270" y="1644"/>
    </contour>
    <contour>
      <point x="169" y="905" type="line"/>
      <point x="190" y="1025"/>
      <point x="178" y="1149"/>
      <point x="207" y="1268" type="curve"/>
      <point x="280" y="1268" type="line" smooth="yes"/>
      <point x="383" y="1268"/>
      <point x="446" y="1169"/>
      <point x="449" y="1075" type="curve"/>
      <point x="443" y="1059" type="line"/>
      <point x="453" y="1039" type="line"/>
      <point x="454" y="880"/>
      <point x="476" y="721"/>
      <point x="476" y="562" type="curve" smooth="yes"/>
      <point x="476" y="452"/>
      <point x="462" y="45"/>
      <point x="305" y="45" type="curve" smooth="yes"/>
      <point x="171" y="45"/>
      <point x="160" y="611"/>
      <point x="160" y="715" type="curve" smooth="yes"/>
      <point x="160" y="778"/>
      <point x="170" y="841"/>
      <point x="170" y="904" type="curve"/>
    </contour>
    <contour>
      <point x="313" y="-40" type="curve" smooth="yes"/>
      <point x="571" y="-40"/>
      <point x="586" y="366"/>
      <point x="586" y="549" type="curve" smooth="yes"/>
      <point x="586" y="626"/>
      <point x="582" y="704"/>
      <point x="582" y="781" type="curve"/>
      <point x="586" y="791" type="line"/>
      <point x="586" y="796" type="line" smooth="yes"/>
      <point x="586" y="930"/>
      <point x="570" y="1120"/>
      <point x="496" y="1235" type="curve" smooth="yes"/>
      <point x="423" y="1349"/>
      <point x="368" y="1317"/>
      <point x="256" y="1351" type="curve"/>
      <point x="243" y="1367"/>
      <point x="222" y="1376"/>
      <point x="202" y="1376" type="curve" smooth="yes"/>
      <point x="47" y="1376"/>
      <point x="48" y="858"/>
      <point x="48" y="749" type="curve" smooth="yes"/>
      <point x="48" y="712" type="line"/>
      <point x="50" y="712"/>
      <point x="51" y="709"/>
      <point x="51" y="702" type="curve" smooth="yes"/>
      <point x="51" y="675"/>
      <point x="49" y="656"/>
      <point x="49" y="624" type="curve" smooth="yes"/>
      <point x="49" y="408"/>
      <point x="80" y="-40"/>
    </contour>
  </outline>
</glyph>
<glyph name="odieresis" format="1">
  <advance width="651"/>
  <unicode hex="00F6"/>
  <outline>
    <contour>
      <point x="315" y="-40" type="curve" smooth="yes"/>
      <point x="573" y="-40"/>
      <point x="588" y="366"/>
      <point x="588" y="549" type="curve" smooth="yes"/>
      <point x="588" y="626"/>
      <point x="584" y="704"/>
      <point x="584" y="781" type="curve"/>
      <point x="588" y="791" type="line"/>
      <point x="588" y="796" type="line" smooth="yes"/>
      <point x="588" y="930"/>
      <point x="572" y="1120"/>
      <point x="498" y="1235" type="curve" smooth="yes"/>
      <point x="425" y="1349"/>
      <point x="370" y="1317"/>
      <point x="258" y="1351" type="curve"/>
      <point x="245" y="1367"/>
      <point x="224" y="1376"/>
      <point x="204" y="1376" type="curve" smooth="yes"/>
      <point x="49" y="1376"/>
      <point x="50" y="858"/>
      <point x="50" y="749" type="curve" smooth="yes"/>
      <point x="50" y="712" type="line"/>
      <point x="52" y="712"/>
      <point x="53" y="709"/>
      <point x="53" y="702" type="curve" smooth="yes"/>
      <point x="53" y="675"/>
      <point x="51" y="656"/>
      <point x="51" y="624" type="curve" smooth="yes"/>
      <point x="51" y="408"/>
      <point x="82" y="-40"/>
    </contour>
    <contour>
      <point x="171" y="905" type="line"/>
      <point x="192" y="1025"/>
      <point x="180" y="1149"/>
      <point x="209" y="1268" type="curve"/>
      <point x="282" y="1268" type="line" smooth="yes"/>
      <point x="385" y="1268"/>
      <point x="448" y="1169"/>
      <point x="451" y="1075" type="curve"/>
      <point x="445" y="1059" type="line"/>
      <point x="455" y="1039" type="line"/>
      <point x="456" y="880"/>
      <point x="478" y="721"/>
      <point x="478" y="562" type="curve" smooth="yes"/>
      <point x="478" y="452"/>
      <point x="464" y="45"/>
      <point x="307" y="45" type="curve" smooth="yes"/>
      <point x="173" y="45"/>
      <point x="162" y="611"/>
      <point x="162" y="715" type="curve" smooth="yes"/>
      <point x="162" y="778"/>
      <point x="172" y="841"/>
      <point x="172" y="904" type="curve"/>
    </contour>
    <contour>
      <point x="429" y="1544" type="curve" smooth="yes"/>
      <point x="429" y="1509"/>
      <point x="457" y="1475"/>
      <point x="493" y="1475" type="curve" smooth="yes"/>
      <point x="533" y="1475"/>
      <point x="570" y="1504"/>
      <point x="570" y="1546" type="curve" smooth="yes"/>
      <point x="570" y="1582"/>
      <point x="539" y="1619"/>
      <point x="502" y="1619" type="curve" smooth="yes"/>
      <point x="463" y="1619"/>
      <point x="429" y="1583"/>
    </contour>
    <contour>
      <point x="68" y="1475" type="curve" smooth="yes"/>
      <point x="107" y="1475"/>
      <point x="150" y="1505"/>
      <point x="150" y="1547" type="curve" smooth="yes"/>
      <point x="150" y="1586"/>
      <point x="117" y="1616"/>
      <point x="79" y="1616" type="curve" smooth="yes"/>
      <point x="38" y="1616"/>
      <point x="9" y="1582"/>
      <point x="9" y="1542" type="curve" smooth="yes"/>
      <point x="9" y="1505"/>
      <point x="29" y="1475"/>
    </contour>
  </outline>
</glyph>
<glyph name="yacute" format="1">
  <advance width="513"/>
  <unicode hex="00FD"/>
  <outline>
    <contour>
      <point x="179" y="1529" type="line"/>
      <point x="179" y="1490"/>
      <point x="214" y="1475"/>
      <point x="248" y="1475" type="curve"/>
      <point x="313" y="1544"/>
      <point x="428" y="1622"/>
      <point x="516" y="1658" type="curve"/>
      <point x="519" y="1674"/>
      <point x="525" y="1690"/>
      <point x="525" y="1707" type="curve" smooth="yes"/>
      <point x="525" y="1750"/>
      <point x="483" y="1763"/>
      <point x="447" y="1763" type="curve"/>
      <point x="399" y="1718"/>
      <point x="182" y="1586"/>
      <point x="180" y="1531" type="curve"/>
    </contour>
    <contour>
      <point x="354" y="136" type="line"/>
      <point x="352" y="453" type="line"/>
      <point x="351" y="513"/>
      <point x="335" y="572"/>
      <point x="335" y="633" type="curve"/>
      <point x="343" y="651"/>
      <point x="348" y="670"/>
      <point x="348" y="690" type="curve" smooth="yes"/>
      <point x="348" y="702"/>
      <point x="342" y="717"/>
      <point x="337" y="728" type="curve"/>
      <point x="341" y="934"/>
      <point x="475" y="1120"/>
      <point x="475" y="1321" type="curve" smooth="yes"/>
      <point x="475" y="1348"/>
      <point x="449" y="1364"/>
      <point x="425" y="1364" type="curve" smooth="yes"/>
      <point x="335" y="1364"/>
      <point x="295" y="956"/>
      <point x="265" y="879" type="curve"/>
      <point x="239" y="953"/>
      <point x="156" y="1333"/>
      <point x="77" y="1335" type="curve"/>
      <point x="31" y="1301" type="line"/>
      <point x="31" y="1290" type="line" smooth="yes"/>
      <point x="31" y="1204"/>
      <point x="191" y="827"/>
      <point x="231" y="719" type="curve"/>
      <point x="225" y="694" type="line"/>
      <point x="238" y="666" type="line"/>
      <point x="242" y="566"/>
      <point x="255" y="466"/>
      <point x="255" y="366" type="curve" smooth="yes"/>
      <point x="255" y="302"/>
      <point x="255" y="64"/>
      <point x="232" y="19" type="curve"/>
      <point x="242" y="-4"/>
      <point x="262" y="-26"/>
      <point x="289" y="-26" type="curve" smooth="yes"/>
      <point x="351" y="-26"/>
      <point x="356" y="55"/>
      <point x="356" y="111" type="curve" smooth="yes"/>
      <point x="356" y="121"/>
      <point x="356" y="131"/>
      <point x="356" y="139" type="curve"/>
    </contour>
  </outline>
</glyph>
<glyph name="circumflex" format="1">
  <advance width="438"/>
  <unicode hex="02C6"/>
  <outline>
    <contour>
      <point x="232" y="1193" type="curve"/>
      <point x="251" y="1114"/>
      <point x="264" y="1034"/>
      <point x="272" y="954" type="curve"/>
      <point x="316" y="927" type="line"/>
      <point x="344" y="929"/>
      <point x="381" y="944"/>
      <point x="381" y="977" type="curve" smooth="yes"/>
      <point x="381" y="984"/>
      <point x="376" y="995"/>
      <point x="374" y="1002" type="curve"/>
      <point x="376" y="1012" type="line"/>
      <point x="362" y="1043" type="line"/>
      <point x="363" y="1054" type="line"/>
      <point x="363" y="1127"/>
      <point x="301" y="1206"/>
      <point x="301" y="1292" type="curve" smooth="yes"/>
      <point x="301" y="1326"/>
      <point x="288" y="1359"/>
      <point x="249" y="1359" type="curve" smooth="yes"/>
      <point x="174" y="1359"/>
      <point x="59" y="1045"/>
      <point x="52" y="976" type="curve"/>
      <point x="119" y="928" type="line"/>
      <point x="186" y="1012"/>
      <point x="198" y="1095"/>
    </contour>
  </outline>
</glyph>
<glyph name="breve" format="1">
  <advance width="482"/>
  <unicode hex="02D8"/>
  <outline>
    <contour>
      <point x="411" y="1032" type="line"/>
      <point x="407" y="1048" type="line"/>
      <point x="409" y="1055"/>
      <point x="416" y="1075"/>
      <point x="416" y="1081" type="curve" smooth="yes"/>
      <point x="416" y="1110"/>
      <point x="390" y="1133"/>
      <point x="362" y="1133" type="curve" smooth="yes"/>
      <point x="304" y="1133"/>
      <point x="304" y="1088"/>
      <point x="304" y="1043" type="curve" smooth="yes"/>
      <point x="304" y="1025"/>
      <point x="278" y="962"/>
      <point x="257" y="962" type="curve" smooth="yes"/>
      <point x="214" y="962" type="line"/>
      <point x="158" y="1001"/>
      <point x="176" y="1142"/>
      <point x="105" y="1142" type="curve"/>
      <point x="67" y="1110" type="line"/>
      <point x="67" y="1100" type="line" smooth="yes"/>
      <point x="67" y="992"/>
      <point x="113" y="867"/>
      <point x="240" y="867" type="curve" smooth="yes"/>
      <point x="349" y="867"/>
      <point x="375" y="945"/>
      <point x="412" y="1031" type="curve"/>
    </contour>
  </outline>
</glyph>
<glyph name="ogonek" format="1">
  <advance width="376"/>
  <unicode hex="02DB"/>
  <outline>
    <contour>
      <point x="290" y="-7" type="curve"/>
      <point x="235" y="20" type="line"/>
      <point x="140" y="-38"/>
      <point x="43" y="-141"/>
      <point x="43" y="-259" type="curve" smooth="yes"/>
      <point x="43" y="-313"/>
      <point x="75" y="-366"/>
      <point x="134" y="-366" type="curve" smooth="yes"/>
      <point x="166" y="-366"/>
      <point x="240" y="-342"/>
      <point x="240" y="-302" type="curve"/>
      <point x="226" y="-268" type="line"/>
      <point x="201" y="-286"/>
      <point x="171" y="-301"/>
      <point x="140" y="-301" type="curve" smooth="yes"/>
      <point x="118" y="-301"/>
      <point x="113" y="-266"/>
      <point x="113" y="-250" type="curve" smooth="yes"/>
      <point x="113" y="-145"/>
      <point x="219" y="-66"/>
    </contour>
  </outline>
</glyph>
<glyph name="emdash" format="1">
  <advance width="684"/>
  <unicode hex="2014"/>
  <outline>
    <contour>
      <point x="404" y="779" type="curve"/>
      <point x="-73" y="779" type="line" smooth="yes"/>
      <point x="-101" y="779"/>
      <point x="-119" y="761"/>
      <point x="-119" y="733" type="curve" smooth="yes"/>
      <point x="-119" y="683"/>
      <point x="-55" y="674"/>
      <point x="4" y="674" type="curve" smooth="yes"/>
      <point x="35" y="674"/>
      <point x="64" y="677"/>
      <point x="82" y="677" type="curve" smooth="yes"/>
      <point x="450" y="680" type="line" smooth="yes"/>
      <point x="477" y="680"/>
      <point x="550" y="673"/>
      <point x="623" y="673" type="curve" smooth="yes"/>
      <point x="710" y="673"/>
      <point x="795" y="683"/>
      <point x="795" y="725" type="curve" smooth="yes"/>
      <point x="795" y="773"/>
      <point x="667" y="782"/>
      <point x="556" y="782" type="curve" smooth="yes"/>
      <point x="488" y="782"/>
      <point x="426" y="779"/>
    </contour>
  </outline>
</glyph>
<glyph name="quoteright" format="1">
  <advance width="359"/>
  <unicode hex="2019"/>
  <outline>
    <contour>
      <point x="51" y="1220" type="line"/>
      <point x="105" y="1193" type="line"/>
      <point x="112" y="1193" type="line" smooth="yes"/>
      <point x="207" y="1193"/>
      <point x="297" y="1379"/>
      <point x="297" y="1471" type="curve" smooth="yes"/>
      <point x="297" y="1476"/>
      <point x="296" y="1481"/>
      <point x="296" y="1485" type="curve"/>
      <point x="301" y="1491" type="line"/>
      <point x="284" y="1536"/>
      <point x="261" y="1578"/>
      <point x="207" y="1578" type="curve" smooth="yes"/>
      <point x="159" y="1578"/>
      <point x="106" y="1543"/>
      <point x="106" y="1491" type="curve" smooth="yes"/>
      <point x="106" y="1449"/>
      <point x="132" y="1413"/>
      <point x="165" y="1389" type="curve"/>
      <point x="155" y="1338"/>
      <point x="96" y="1298"/>
      <point x="61" y="1264" type="curve"/>
    </contour>
  </outline>
</glyph>
<glyph name="quotedblright" format="1">
  <advance width="604"/>
  <unicode hex="201D"/>
  <outline>
    <contour>
      <point x="296" y="1221" type="line"/>
      <point x="350" y="1194" type="line"/>
      <point x="356" y="1194" type="line" smooth="yes"/>
      <point x="452" y="1194"/>
      <point x="541" y="1382"/>
      <point x="541" y="1474" type="curve" smooth="yes"/>
      <point x="541" y="1479"/>
      <point x="541" y="1483"/>
      <point x="541" y="1487" type="curve"/>
      <point x="545" y="1493" type="line"/>
      <point x="531" y="1538"/>
      <point x="504" y="1580"/>
      <point x="452" y="1580" type="curve" smooth="yes"/>
      <point x="404" y="1580"/>
      <point x="351" y="1545"/>
      <point x="351" y="1493" type="curve" smooth="yes"/>
      <point x="351" y="1452"/>
      <point x="377" y="1415"/>
      <point x="409" y="1391" type="curve"/>
      <point x="399" y="1343"/>
      <point x="342" y="1296"/>
      <point x="305" y="1266" type="curve"/>
    </contour>
    <contour>
      <point x="50" y="1223" type="line"/>
      <point x="104" y="1196" type="line"/>
      <point x="111" y="1196" type="line" smooth="yes"/>
      <point x="206" y="1196"/>
      <point x="296" y="1382"/>
      <point x="296" y="1474" type="curve" smooth="yes"/>
      <point x="296" y="1479"/>
      <point x="295" y="1484"/>
      <point x="295" y="1488" type="curve"/>
      <point x="300" y="1494" type="line"/>
      <point x="283" y="1539"/>
      <point x="260" y="1581"/>
      <point x="206" y="1581" type="curve" smooth="yes"/>
      <point x="158" y="1581"/>
      <point x="105" y="1546"/>
      <point x="105" y="1494" type="curve" smooth="yes"/>
      <point x="105" y="1452"/>
      <point x="131" y="1416"/>
      <point x="164" y="1392" type="curve"/>
      <point x="154" y="1341"/>
      <point x="95" y="1301"/>
      <point x="60" y="1267" type="curve"/>
    </contour>
  </outline>
</glyph>
<glyph name="commaaccent" format="1">
  <advance width="376"/>
  <outline>
    <contour>
      <point x="58" y="-474" type="line"/>
      <point x="113" y="-501" type="line"/>
      <point x="119" y="-501" type="line" smooth="yes"/>
      <point x="214" y="-501"/>
      <point x="305" y="-314"/>
      <point x="305" y="-222" type="curve" smooth="yes"/>
      <point x="305" y="-217"/>
      <point x="304" y="-212"/>
      <point x="304" y="-208" type="curve"/>
      <point x="308" y="-201" type="line"/>
      <point x="291" y="-156"/>
      <point x="268" y="-115"/>
      <point x="214" y="-115" type="curve" smooth="yes"/>
      <point x="166" y="-115"/>
      <point x="113" y="-150"/>
      <point x="113" y="-202" type="curve" smooth="yes"/>
      <point x="113" y="-244"/>
      <point x="139" y="-279"/>
      <point x="172" y="-303" type="curve"/>
      <point x="162" y="-353"/>
      <point x="102" y="-395"/>
      <point x="68" y="-429" type="curve"/>
    </contour>
  </outline>
</glyph>
